G04*
G04 #@! TF.GenerationSoftware,Altium Limited,Altium Designer,21.7.2 (23)*
G04*
G04 Layer_Physical_Order=1*
G04 Layer_Color=255*
%FSLAX25Y25*%
%MOIN*%
G70*
G04*
G04 #@! TF.SameCoordinates,8300F03B-7B83-4255-BAC5-FFB0951DAD17*
G04*
G04*
G04 #@! TF.FilePolarity,Positive*
G04*
G01*
G75*
%ADD13C,0.01968*%
%ADD14C,0.09843*%
G36*
X382993Y340456D02*
X443000D01*
Y334662D01*
X424332D01*
X423934Y334583D01*
X423597Y334357D01*
X423372Y334020D01*
X423292Y333622D01*
Y321811D01*
X423372Y321413D01*
X423597Y321076D01*
X423934Y320850D01*
X424332Y320771D01*
X443000D01*
Y224426D01*
X382993D01*
X382984Y224424D01*
X381660Y224554D01*
X380377Y224943D01*
X379195Y225575D01*
X378159Y226425D01*
X377309Y227461D01*
X376677Y228643D01*
X376288Y229926D01*
X376157Y231250D01*
X376159Y231260D01*
Y333622D01*
X376157Y333632D01*
X376288Y334956D01*
X376677Y336239D01*
X377309Y337421D01*
X378159Y338457D01*
X379195Y339307D01*
X380377Y339939D01*
X381660Y340328D01*
X382984Y340458D01*
X382993Y340456D01*
D02*
G37*
G36*
X507627Y340328D02*
X508910Y339939D01*
X510092Y339307D01*
X511128Y338457D01*
X511978Y337421D01*
X512610Y336239D01*
X512999Y334956D01*
X513129Y333632D01*
X513128Y333622D01*
Y231260D01*
X513129Y231250D01*
X512999Y229926D01*
X512610Y228643D01*
X511978Y227461D01*
X511128Y226425D01*
X510092Y225575D01*
X508910Y224943D01*
X507627Y224554D01*
X506303Y224424D01*
X506293Y224426D01*
X446000D01*
Y320771D01*
X463702D01*
X464100Y320850D01*
X464437Y321076D01*
X464663Y321413D01*
X464742Y321811D01*
Y333622D01*
X464663Y334020D01*
X464437Y334357D01*
X464100Y334583D01*
X463702Y334662D01*
X446000D01*
Y340456D01*
X506293D01*
X506303Y340458D01*
X507627Y340328D01*
D02*
G37*
%LPC*%
G36*
X402678Y322851D02*
X386930D01*
X386533Y322772D01*
X386195Y322546D01*
X385970Y322209D01*
X385891Y321811D01*
Y243071D01*
X385970Y242673D01*
X386195Y242336D01*
X386533Y242110D01*
X386930Y242031D01*
X402678D01*
X403076Y242110D01*
X403414Y242336D01*
X403639Y242673D01*
X403718Y243071D01*
Y321811D01*
X403639Y322209D01*
X403414Y322546D01*
X403076Y322772D01*
X402678Y322851D01*
D02*
G37*
G36*
X502356D02*
X486608D01*
X486210Y322772D01*
X485873Y322546D01*
X485648Y322209D01*
X485568Y321811D01*
Y243071D01*
X485648Y242673D01*
X485873Y242336D01*
X486210Y242110D01*
X486608Y242031D01*
X502356D01*
X502754Y242110D01*
X503091Y242336D01*
X503317Y242673D01*
X503396Y243071D01*
Y321811D01*
X503317Y322209D01*
X503091Y322546D01*
X502754Y322772D01*
X502356Y322851D01*
D02*
G37*
%LPD*%
D13*
X469000Y236000D02*
D03*
Y239500D02*
D03*
Y243500D02*
D03*
Y247500D02*
D03*
Y251500D02*
D03*
X465000Y236000D02*
D03*
Y239500D02*
D03*
Y243500D02*
D03*
Y247500D02*
D03*
Y251500D02*
D03*
X460500Y236000D02*
D03*
Y239500D02*
D03*
Y243500D02*
D03*
Y247500D02*
D03*
Y251500D02*
D03*
X469000Y255500D02*
D03*
X465000D02*
D03*
X460500D02*
D03*
X429000Y236000D02*
D03*
X425000D02*
D03*
X429000Y239500D02*
D03*
X425000D02*
D03*
X429000Y243500D02*
D03*
X425000D02*
D03*
X429000Y247500D02*
D03*
X425000D02*
D03*
X429000Y251500D02*
D03*
X425000D02*
D03*
X421000Y236000D02*
D03*
Y239500D02*
D03*
Y243500D02*
D03*
Y247500D02*
D03*
Y251500D02*
D03*
X425000Y255500D02*
D03*
X429000D02*
D03*
X421000D02*
D03*
D14*
X464500Y310000D02*
D03*
X425130D02*
D03*
M02*
