G04*
G04 #@! TF.GenerationSoftware,Altium Limited,Altium Designer,21.7.2 (23)*
G04*
G04 Layer_Color=128*
%FSLAX25Y25*%
%MOIN*%
G70*
G04*
G04 #@! TF.SameCoordinates,9CF6D672-0747-4E83-A6B2-1B663A2FBEA2*
G04*
G04*
G04 #@! TF.FilePolarity,Positive*
G04*
G01*
G75*
%ADD10C,0.00200*%
D10*
X468409Y236000D02*
X469591D01*
X469000Y235409D02*
Y236591D01*
X468409Y239500D02*
X469591D01*
X469000Y238910D02*
Y240090D01*
X468409Y243500D02*
X469591D01*
X469000Y242910D02*
Y244091D01*
X468409Y247500D02*
X469591D01*
X469000Y246909D02*
Y248091D01*
X468409Y251500D02*
X469591D01*
X469000Y250909D02*
Y252091D01*
X464409Y236000D02*
X465590D01*
X465000Y235409D02*
Y236591D01*
X464409Y239500D02*
X465590D01*
X465000Y238910D02*
Y240090D01*
X464409Y243500D02*
X465590D01*
X465000Y242910D02*
Y244091D01*
X464409Y247500D02*
X465590D01*
X465000Y246909D02*
Y248091D01*
X464409Y251500D02*
X465590D01*
X465000Y250909D02*
Y252091D01*
X459909Y236000D02*
X461091D01*
X460500Y235409D02*
Y236591D01*
X459909Y239500D02*
X461091D01*
X460500Y238910D02*
Y240090D01*
X459909Y243500D02*
X461091D01*
X460500Y242910D02*
Y244091D01*
X459909Y247500D02*
X461091D01*
X460500Y246909D02*
Y248091D01*
X459909Y251500D02*
X461091D01*
X460500Y250909D02*
Y252091D01*
X468409Y255500D02*
X469591D01*
X469000Y254909D02*
Y256090D01*
X464409Y255500D02*
X465590D01*
X465000Y254909D02*
Y256090D01*
X459909Y255500D02*
X461091D01*
X460500Y254909D02*
Y256090D01*
X428409Y236000D02*
X429591D01*
X429000Y235409D02*
Y236591D01*
X424409Y236000D02*
X425591D01*
X425000Y235409D02*
Y236591D01*
X428409Y239500D02*
X429591D01*
X429000Y238910D02*
Y240090D01*
X424409Y239500D02*
X425591D01*
X425000Y238910D02*
Y240090D01*
X428409Y243500D02*
X429591D01*
X429000Y242910D02*
Y244091D01*
X424409Y243500D02*
X425591D01*
X425000Y242910D02*
Y244091D01*
X428409Y247500D02*
X429591D01*
X429000Y246909D02*
Y248091D01*
X424409Y247500D02*
X425591D01*
X425000Y246909D02*
Y248091D01*
X428409Y251500D02*
X429591D01*
X429000Y250909D02*
Y252091D01*
X424409Y251500D02*
X425591D01*
X425000Y250909D02*
Y252091D01*
X420409Y236000D02*
X421591D01*
X421000Y235409D02*
Y236591D01*
X420409Y239500D02*
X421591D01*
X421000Y238910D02*
Y240090D01*
X420409Y243500D02*
X421591D01*
X421000Y242910D02*
Y244091D01*
X420409Y247500D02*
X421591D01*
X421000Y246909D02*
Y248091D01*
X420409Y251500D02*
X421591D01*
X421000Y250909D02*
Y252091D01*
X424409Y255500D02*
X425591D01*
X425000Y254909D02*
Y256090D01*
X428409Y255500D02*
X429591D01*
X429000Y254909D02*
Y256090D01*
X420409Y255500D02*
X421591D01*
X421000Y254909D02*
Y256090D01*
X461350Y310000D02*
X467650D01*
X464500Y306850D02*
Y313150D01*
X421980Y310000D02*
X428279D01*
X425130Y306850D02*
Y313150D01*
M02*
