M48
;Layer_Color=9474304
;FILE_FORMAT=2:5
INCH,LZ
;TYPE=PLATED
T1F00S00C0.01181
T2F00S00C0.06299
%
T01
X0469Y0236
X0469Y02395
X0469Y02435
X0469Y02475
X0469Y02515
X0469Y02555
X0465Y02555
X0465Y02515
X0465Y02475
X0465Y02435
X0465Y02395
X0465Y0236
X04605Y0236
X04605Y02395
X04605Y02435
X04605Y02475
X04605Y02515
X04605Y02555
X0429Y02555
X0429Y02515
X0429Y02475
X0429Y02435
X0429Y02395
X0429Y0236
X0425Y0236
X0425Y02395
X0425Y02435
X0425Y02475
X0425Y02515
X0421Y02515
X0421Y02475
X0421Y02435
X0421Y02395
X0421Y0236
X0421Y02555
X0425Y02555
T02
X042513Y031
X04645Y031
M30
