G04*
G04 #@! TF.GenerationSoftware,Altium Limited,Altium Designer,21.7.2 (23)*
G04*
G04 Layer_Color=8388736*
%FSLAX25Y25*%
%MOIN*%
G70*
G04*
G04 #@! TF.SameCoordinates,8300F03B-7B83-4255-BAC5-FFB0951DAD17*
G04*
G04*
G04 #@! TF.FilePolarity,Negative*
G04*
G01*
G75*
%ADD11C,0.02769*%
%ADD12C,0.10642*%
G36*
X419000Y257750D02*
Y233750D01*
X431500D01*
Y257750D01*
X419000D01*
D02*
G37*
G36*
X458500D02*
Y233750D01*
X471000D01*
Y257750D01*
X458500D01*
D02*
G37*
D11*
X469000Y236000D02*
D03*
Y239500D02*
D03*
Y243500D02*
D03*
Y247500D02*
D03*
Y251500D02*
D03*
X465000Y236000D02*
D03*
Y239500D02*
D03*
Y243500D02*
D03*
Y247500D02*
D03*
Y251500D02*
D03*
X460500Y236000D02*
D03*
Y239500D02*
D03*
Y243500D02*
D03*
Y247500D02*
D03*
Y251500D02*
D03*
X469000Y255500D02*
D03*
X465000D02*
D03*
X460500D02*
D03*
X429000Y236000D02*
D03*
X425000D02*
D03*
X429000Y239500D02*
D03*
X425000D02*
D03*
X429000Y243500D02*
D03*
X425000D02*
D03*
X429000Y247500D02*
D03*
X425000D02*
D03*
X429000Y251500D02*
D03*
X425000D02*
D03*
X421000Y236000D02*
D03*
Y239500D02*
D03*
Y243500D02*
D03*
Y247500D02*
D03*
Y251500D02*
D03*
X425000Y255500D02*
D03*
X429000D02*
D03*
X421000D02*
D03*
D12*
X464500Y310000D02*
D03*
X425130D02*
D03*
M02*
