G04*
G04 #@! TF.GenerationSoftware,Altium Limited,Altium Designer,21.7.2 (23)*
G04*
G04 Layer_Color=65535*
%FSLAX25Y25*%
%MOIN*%
G70*
G04*
G04 #@! TF.SameCoordinates,8300F03B-7B83-4255-BAC5-FFB0951DAD17*
G04*
G04*
G04 #@! TF.FilePolarity,Positive*
G04*
G01*
G75*
%ADD10C,0.01000*%
G36*
X450062Y305379D02*
X449873Y305251D01*
Y301544D01*
Y301538D01*
Y301533D01*
Y301516D01*
X449868Y301494D01*
X449857Y301438D01*
X449829Y301366D01*
X449807Y301327D01*
X449779Y301289D01*
X449740Y301250D01*
X449696Y301211D01*
X449646Y301172D01*
X449585Y301133D01*
X449518Y301100D01*
X449435Y301067D01*
Y301072D01*
Y301078D01*
X449424Y301111D01*
X449402Y301155D01*
X449385Y301183D01*
X449363Y301216D01*
X449330Y301250D01*
X449291Y301283D01*
X449246Y301322D01*
X449185Y301355D01*
X449119Y301394D01*
X449041Y301433D01*
X448952Y301472D01*
X448847Y301505D01*
Y301583D01*
X448852D01*
X448869Y301577D01*
X448891D01*
X448919Y301572D01*
X448958Y301566D01*
X449002Y301561D01*
X449096Y301544D01*
X449196Y301533D01*
X449296Y301522D01*
X449385Y301516D01*
X449457D01*
X449474Y301522D01*
X449502Y301527D01*
X449529Y301544D01*
X449552Y301561D01*
X449579Y301594D01*
X449596Y301633D01*
X449602Y301688D01*
Y302948D01*
X448553D01*
Y302942D01*
X448547Y302915D01*
Y302876D01*
X448536Y302826D01*
X448530Y302765D01*
X448514Y302693D01*
X448497Y302609D01*
X448481Y302521D01*
X448430Y302332D01*
X448358Y302138D01*
X448314Y302038D01*
X448270Y301938D01*
X448214Y301849D01*
X448153Y301760D01*
X448147Y301755D01*
X448136Y301738D01*
X448120Y301716D01*
X448092Y301688D01*
X448059Y301649D01*
X448020Y301605D01*
X447975Y301555D01*
X447926Y301500D01*
X447864Y301444D01*
X447803Y301383D01*
X447659Y301261D01*
X447498Y301139D01*
X447315Y301022D01*
X447276Y301089D01*
X447282Y301094D01*
X447293Y301105D01*
X447315Y301122D01*
X447343Y301144D01*
X447381Y301178D01*
X447420Y301211D01*
X447509Y301300D01*
X447615Y301400D01*
X447715Y301516D01*
X447815Y301644D01*
X447903Y301771D01*
Y301777D01*
X447914Y301788D01*
X447926Y301805D01*
X447936Y301833D01*
X447953Y301866D01*
X447975Y301910D01*
X447998Y301955D01*
X448020Y302005D01*
X448070Y302127D01*
X448120Y302265D01*
X448170Y302421D01*
X448209Y302587D01*
Y302593D01*
X448214Y302609D01*
X448220Y302637D01*
X448225Y302676D01*
X448231Y302726D01*
X448236Y302787D01*
X448247Y302865D01*
X448258Y302948D01*
X448264Y303042D01*
X448275Y303153D01*
X448281Y303275D01*
X448286Y303409D01*
X448292Y303553D01*
X448297Y303714D01*
X448303Y303886D01*
Y304069D01*
Y304075D01*
Y304080D01*
Y304114D01*
Y304169D01*
Y304236D01*
Y304319D01*
Y304419D01*
Y304524D01*
Y304641D01*
X448297Y304763D01*
Y304890D01*
X448292Y305146D01*
Y305274D01*
X448286Y305390D01*
Y305501D01*
X448281Y305607D01*
X448597Y305440D01*
X449563D01*
X449751Y305651D01*
X450062Y305379D01*
D02*
G37*
G36*
X436759Y305462D02*
X438835D01*
X439007Y305673D01*
X439384Y305318D01*
X439373D01*
X439340Y305312D01*
X439290Y305290D01*
X439251Y305279D01*
X439212Y305257D01*
X439168Y305235D01*
X439118Y305201D01*
X439062Y305163D01*
X439001Y305113D01*
X438940Y305057D01*
X438868Y304996D01*
X438790Y304918D01*
X438712Y304835D01*
X438646Y304874D01*
X438879Y305340D01*
X436759D01*
Y305329D01*
X436764Y305301D01*
X436770Y305251D01*
X436775Y305196D01*
Y305135D01*
Y305074D01*
X436764Y305018D01*
X436748Y304968D01*
Y304963D01*
X436737Y304952D01*
X436726Y304929D01*
X436709Y304907D01*
X436664Y304857D01*
X436637Y304835D01*
X436603Y304813D01*
X436598D01*
X436587Y304807D01*
X436570Y304802D01*
X436548Y304796D01*
X436487D01*
X436459Y304802D01*
X436426Y304813D01*
X436420D01*
X436415Y304818D01*
X436387Y304841D01*
X436354Y304868D01*
X436348Y304879D01*
X436343Y304896D01*
Y304902D01*
Y304907D01*
X436348Y304924D01*
X436354Y304946D01*
X436365Y304974D01*
X436376Y305001D01*
X436398Y305040D01*
X436426Y305085D01*
X436431Y305096D01*
X436448Y305124D01*
X436476Y305168D01*
X436492Y305201D01*
X436509Y305240D01*
X436526Y305285D01*
X436548Y305334D01*
X436565Y305384D01*
X436587Y305446D01*
X436603Y305518D01*
X436626Y305590D01*
X436642Y305667D01*
X436659Y305756D01*
X436742D01*
X436759Y305462D01*
D02*
G37*
G36*
X453464Y305690D02*
X453253Y305545D01*
Y305540D01*
Y305529D01*
Y305507D01*
Y305473D01*
Y305434D01*
Y305390D01*
Y305340D01*
Y305285D01*
X453248Y305157D01*
Y305018D01*
X453242Y304863D01*
X453237Y304707D01*
X454513D01*
X454702Y304941D01*
X455057Y304669D01*
X454869Y304519D01*
Y301710D01*
Y301705D01*
Y301688D01*
Y301666D01*
X454863Y301633D01*
X454857Y301594D01*
X454846Y301549D01*
X454835Y301500D01*
X454818Y301449D01*
X454791Y301394D01*
X454763Y301339D01*
X454724Y301283D01*
X454674Y301228D01*
X454619Y301178D01*
X454552Y301128D01*
X454474Y301083D01*
X454386Y301044D01*
Y301050D01*
Y301061D01*
X454380Y301078D01*
X454369Y301100D01*
X454358Y301128D01*
X454341Y301155D01*
X454319Y301194D01*
X454286Y301228D01*
X454247Y301266D01*
X454197Y301311D01*
X454136Y301350D01*
X454058Y301389D01*
X453975Y301427D01*
X453875Y301466D01*
X453758Y301500D01*
X453631Y301527D01*
Y301605D01*
X453653D01*
X453686Y301599D01*
X453725D01*
X453770Y301594D01*
X453820D01*
X453942Y301588D01*
X454069Y301577D01*
X454191Y301572D01*
X454252D01*
X454308Y301566D01*
X454408D01*
X454430Y301572D01*
X454458Y301588D01*
X454497Y301616D01*
X454530Y301660D01*
X454541Y301688D01*
X454558Y301727D01*
X454569Y301771D01*
X454574Y301821D01*
Y301877D01*
Y301943D01*
Y304585D01*
X453237D01*
Y304580D01*
Y304563D01*
X453231Y304541D01*
Y304513D01*
X453226Y304474D01*
X453220Y304430D01*
X453203Y304324D01*
X453187Y304202D01*
X453165Y304069D01*
X453137Y303936D01*
X453109Y303808D01*
X453115D01*
X453120Y303803D01*
X453137Y303792D01*
X453159Y303781D01*
X453215Y303747D01*
X453281Y303708D01*
X453370Y303658D01*
X453464Y303597D01*
X453564Y303536D01*
X453670Y303470D01*
X453775Y303403D01*
X453875Y303337D01*
X453975Y303270D01*
X454058Y303203D01*
X454136Y303142D01*
X454191Y303092D01*
X454236Y303048D01*
X454247Y303026D01*
X454252Y303009D01*
Y303004D01*
X454258Y302981D01*
X454264Y302954D01*
X454269Y302915D01*
X454280Y302826D01*
X454286Y302782D01*
Y302737D01*
Y302732D01*
Y302709D01*
X454280Y302682D01*
Y302643D01*
X454258Y302559D01*
X454241Y302515D01*
X454219Y302476D01*
Y302471D01*
X454208Y302460D01*
X454186Y302432D01*
X454158Y302399D01*
X454147Y302387D01*
X454136Y302382D01*
X454125Y302387D01*
X454114Y302393D01*
X454097Y302404D01*
X454080Y302426D01*
X454058Y302460D01*
X454031Y302510D01*
X454008Y302571D01*
Y302576D01*
X454003Y302582D01*
X453997Y302598D01*
X453986Y302621D01*
X453958Y302671D01*
X453914Y302743D01*
X453858Y302832D01*
X453792Y302931D01*
X453714Y303037D01*
X453620Y303148D01*
X453614Y303153D01*
X453609Y303159D01*
X453592Y303176D01*
X453575Y303198D01*
X453520Y303259D01*
X453453Y303331D01*
X453370Y303420D01*
X453276Y303509D01*
X453176Y303608D01*
X453065Y303703D01*
Y303697D01*
X453054Y303681D01*
X453043Y303653D01*
X453026Y303614D01*
X453004Y303570D01*
X452982Y303514D01*
X452948Y303459D01*
X452915Y303392D01*
X452826Y303253D01*
X452721Y303103D01*
X452598Y302954D01*
X452460Y302809D01*
X452454Y302804D01*
X452443Y302793D01*
X452421Y302776D01*
X452388Y302748D01*
X452354Y302720D01*
X452310Y302682D01*
X452260Y302643D01*
X452205Y302604D01*
X452077Y302515D01*
X451927Y302421D01*
X451772Y302332D01*
X451600Y302254D01*
Y301172D01*
X451283Y301000D01*
Y301006D01*
Y301022D01*
Y301050D01*
X451289Y301089D01*
Y301139D01*
Y301189D01*
X451294Y301250D01*
Y301316D01*
X451300Y301461D01*
Y301610D01*
X451305Y301760D01*
Y301899D01*
Y303930D01*
Y303936D01*
Y303964D01*
Y303997D01*
Y304041D01*
Y304102D01*
Y304164D01*
Y304236D01*
Y304313D01*
X451300Y304474D01*
X451294Y304641D01*
Y304718D01*
X451289Y304791D01*
Y304857D01*
X451283Y304918D01*
X451600Y304707D01*
X452920D01*
Y304713D01*
Y304735D01*
Y304768D01*
X452926Y304807D01*
Y304863D01*
Y304929D01*
Y305001D01*
X452931Y305085D01*
Y305174D01*
Y305268D01*
Y305368D01*
Y305479D01*
X452926Y305706D01*
X452920Y305945D01*
X453464Y305690D01*
D02*
G37*
G36*
X447026D02*
X446854Y305562D01*
Y305185D01*
X447465D01*
X447692Y305418D01*
X448053Y305063D01*
X446854D01*
Y304452D01*
X447298D01*
X447465Y304641D01*
X447781Y304369D01*
X447609Y304241D01*
Y304236D01*
Y304230D01*
Y304197D01*
Y304141D01*
Y304075D01*
Y303991D01*
Y303892D01*
Y303786D01*
X447615Y303675D01*
Y303448D01*
Y303331D01*
X447620Y303220D01*
Y303115D01*
X447626Y303015D01*
Y302931D01*
X447631Y302859D01*
X447337Y302715D01*
Y302948D01*
X446854D01*
Y302293D01*
X447404D01*
X447631Y302526D01*
X447987Y302171D01*
X446854D01*
Y302166D01*
Y302138D01*
Y302104D01*
Y302055D01*
Y301993D01*
Y301927D01*
Y301855D01*
X446860Y301771D01*
Y301610D01*
X446865Y301444D01*
Y301366D01*
X446871Y301294D01*
Y301228D01*
X446876Y301172D01*
X446560Y301000D01*
Y301006D01*
Y301017D01*
Y301033D01*
X446566Y301061D01*
Y301100D01*
Y301144D01*
X446571Y301200D01*
Y301266D01*
Y301339D01*
X446577Y301427D01*
Y301522D01*
Y301627D01*
X446582Y301744D01*
Y301877D01*
Y302016D01*
Y302171D01*
X445706D01*
X445411Y302127D01*
X445245Y302293D01*
X446582D01*
Y302948D01*
X446061D01*
Y302759D01*
X445766Y302609D01*
Y302615D01*
Y302632D01*
Y302660D01*
X445772Y302698D01*
Y302743D01*
Y302793D01*
X445778Y302854D01*
Y302926D01*
Y302998D01*
X445783Y303076D01*
Y303242D01*
X445789Y303420D01*
Y303603D01*
Y303608D01*
Y303625D01*
Y303653D01*
Y303686D01*
Y303731D01*
Y303786D01*
Y303847D01*
Y303914D01*
X445783Y303986D01*
Y304064D01*
X445778Y304236D01*
X445772Y304413D01*
X445766Y304602D01*
X446083Y304452D01*
X446582D01*
Y305063D01*
X445789D01*
X445578Y305018D01*
X445411Y305185D01*
X446582D01*
Y305190D01*
Y305201D01*
Y305218D01*
Y305240D01*
Y305274D01*
Y305307D01*
Y305351D01*
Y305401D01*
X446577Y305512D01*
X446571Y305640D01*
X446566Y305784D01*
X446560Y305945D01*
X447026Y305690D01*
D02*
G37*
G36*
X438013Y304913D02*
X438035Y304902D01*
X438063Y304890D01*
X438096Y304879D01*
X438135Y304863D01*
X438230Y304824D01*
X438341Y304774D01*
X438463Y304724D01*
X438590Y304663D01*
X438718Y304596D01*
X438724D01*
X438735Y304591D01*
X438751Y304580D01*
X438773Y304569D01*
X438829Y304535D01*
X438896Y304491D01*
X438962Y304447D01*
X439023Y304391D01*
X439051Y304369D01*
X439073Y304341D01*
X439084Y304313D01*
X439095Y304291D01*
Y304286D01*
X439101Y304269D01*
Y304247D01*
X439107Y304214D01*
X439101Y304175D01*
X439095Y304130D01*
X439084Y304086D01*
X439068Y304036D01*
Y304030D01*
X439056Y304019D01*
X439045Y303997D01*
X439034Y303975D01*
X439018Y303953D01*
X438996Y303930D01*
X438979Y303919D01*
X438962Y303914D01*
X438951D01*
X438923Y303925D01*
X438907Y303941D01*
X438884Y303958D01*
X438857Y303986D01*
X438835Y304019D01*
X438829Y304030D01*
X438812Y304052D01*
X438785Y304091D01*
X438751Y304136D01*
X438701Y304197D01*
X438646Y304258D01*
X438585Y304324D01*
X438513Y304397D01*
X438502Y304408D01*
X438474Y304430D01*
X438429Y304469D01*
X438368Y304524D01*
X438291Y304591D01*
X438196Y304669D01*
X438085Y304757D01*
X437958Y304857D01*
X437996Y304918D01*
X438002D01*
X438013Y304913D01*
D02*
G37*
G36*
X437641Y304730D02*
X437430Y304669D01*
X437425Y304663D01*
X437403Y304635D01*
X437364Y304602D01*
X437319Y304552D01*
X437258Y304497D01*
X437192Y304430D01*
X437120Y304358D01*
X437036Y304280D01*
X436864Y304119D01*
X436681Y303964D01*
X436592Y303886D01*
X436504Y303819D01*
X436420Y303758D01*
X436343Y303703D01*
X436298Y303769D01*
X436304Y303775D01*
X436326Y303797D01*
X436359Y303831D01*
X436398Y303869D01*
X436448Y303925D01*
X436509Y303991D01*
X436576Y304064D01*
X436642Y304147D01*
X436715Y304236D01*
X436792Y304330D01*
X436870Y304435D01*
X436947Y304546D01*
X437092Y304780D01*
X437164Y304902D01*
X437225Y305024D01*
X437641Y304730D01*
D02*
G37*
G36*
X438019Y304041D02*
X437830Y303914D01*
Y303431D01*
X438712D01*
X438984Y303703D01*
X439384Y303309D01*
X438041D01*
X438047Y303298D01*
X438058Y303275D01*
X438074Y303237D01*
X438102Y303187D01*
X438130Y303120D01*
X438168Y303053D01*
X438207Y302970D01*
X438257Y302887D01*
X438363Y302709D01*
X438485Y302532D01*
X438552Y302443D01*
X438618Y302360D01*
X438690Y302288D01*
X438762Y302221D01*
X438768Y302216D01*
X438779Y302210D01*
X438801Y302193D01*
X438829Y302171D01*
X438862Y302143D01*
X438901Y302116D01*
X438996Y302055D01*
X439107Y301988D01*
X439223Y301932D01*
X439345Y301883D01*
X439406Y301866D01*
X439467Y301855D01*
Y301771D01*
X439451D01*
X439428Y301766D01*
X439406Y301760D01*
X439340Y301749D01*
X439262Y301727D01*
X439179Y301699D01*
X439107Y301660D01*
X439073Y301633D01*
X439045Y301610D01*
X439023Y301577D01*
X439007Y301544D01*
X438996Y301549D01*
X438973Y301577D01*
X438929Y301610D01*
X438879Y301666D01*
X438812Y301733D01*
X438740Y301816D01*
X438662Y301910D01*
X438574Y302016D01*
X438490Y302138D01*
X438402Y302271D01*
X438313Y302415D01*
X438230Y302571D01*
X438146Y302743D01*
X438074Y302920D01*
X438013Y303109D01*
X437958Y303309D01*
X437830D01*
Y301771D01*
Y301760D01*
Y301733D01*
Y301694D01*
X437836Y301633D01*
Y301561D01*
X437841Y301477D01*
X437847Y301383D01*
X437852Y301277D01*
X437536Y301150D01*
Y301155D01*
Y301172D01*
Y301194D01*
X437541Y301228D01*
Y301266D01*
Y301316D01*
X437547Y301422D01*
X437552Y301538D01*
Y301660D01*
X437558Y301771D01*
Y301877D01*
Y303131D01*
X437552Y303126D01*
X437541Y303109D01*
X437525Y303081D01*
X437508Y303053D01*
X437491Y303020D01*
X437436Y302937D01*
X437375Y302837D01*
X437297Y302726D01*
X437203Y302598D01*
X437103Y302460D01*
X436986Y302321D01*
X436864Y302171D01*
X436731Y302027D01*
X436587Y301883D01*
X436431Y301744D01*
X436270Y301610D01*
X436098Y301488D01*
X435921Y301377D01*
X435882Y301444D01*
X435887D01*
X435893Y301455D01*
X435926Y301483D01*
X435976Y301527D01*
X436037Y301583D01*
X436121Y301660D01*
X436209Y301749D01*
X436309Y301855D01*
X436420Y301977D01*
X436531Y302104D01*
X436648Y302249D01*
X436764Y302404D01*
X436881Y302565D01*
X436992Y302737D01*
X437097Y302920D01*
X437197Y303109D01*
X437286Y303309D01*
X436759D01*
X436703Y303303D01*
X436637D01*
X436559Y303292D01*
X436476Y303281D01*
X436387Y303264D01*
X436298Y303242D01*
X436109Y303431D01*
X437558D01*
Y303436D01*
Y303453D01*
Y303481D01*
Y303520D01*
Y303564D01*
Y303614D01*
Y303670D01*
Y303736D01*
X437552Y303869D01*
X437547Y304008D01*
X437541Y304141D01*
X437536Y304269D01*
X438019Y304041D01*
D02*
G37*
G36*
X435815Y305695D02*
X435649Y305545D01*
Y304646D01*
X435860D01*
X436093Y304879D01*
X436448Y304524D01*
X435649D01*
Y303642D01*
X436343Y304041D01*
X436381Y303975D01*
X435649Y303431D01*
Y301627D01*
Y301622D01*
Y301610D01*
Y301594D01*
X435643Y301566D01*
X435627Y301500D01*
X435599Y301422D01*
X435577Y301377D01*
X435549Y301333D01*
X435521Y301283D01*
X435482Y301239D01*
X435432Y301200D01*
X435382Y301155D01*
X435321Y301117D01*
X435249Y301083D01*
Y301089D01*
Y301094D01*
X435244Y301128D01*
X435227Y301172D01*
X435210Y301200D01*
X435194Y301233D01*
X435166Y301266D01*
X435133Y301300D01*
X435088Y301333D01*
X435038Y301372D01*
X434977Y301405D01*
X434905Y301438D01*
X434822Y301472D01*
X434727Y301505D01*
Y301583D01*
X434744D01*
X434766Y301577D01*
X434800D01*
X434833Y301572D01*
X434872Y301566D01*
X434961Y301555D01*
X435055Y301549D01*
X435144Y301538D01*
X435277D01*
X435288Y301544D01*
X435305Y301555D01*
X435327Y301572D01*
X435344Y301599D01*
X435360Y301638D01*
X435371Y301694D01*
X435377Y301771D01*
Y303264D01*
X435371Y303259D01*
X435360Y303253D01*
X435338Y303237D01*
X435310Y303220D01*
X435238Y303165D01*
X435155Y303109D01*
X435066Y303042D01*
X434983Y302981D01*
X434911Y302926D01*
X434877Y302904D01*
X434855Y302887D01*
X434772Y302759D01*
X434500Y303092D01*
X434506D01*
X434511Y303098D01*
X434528Y303103D01*
X434550Y303115D01*
X434583Y303126D01*
X434617Y303142D01*
X434661Y303165D01*
X434711Y303187D01*
X434772Y303209D01*
X434833Y303242D01*
X434905Y303275D01*
X434983Y303314D01*
X435072Y303359D01*
X435166Y303403D01*
X435266Y303459D01*
X435377Y303514D01*
Y304524D01*
X434894D01*
X434689Y304480D01*
X434517Y304646D01*
X435377D01*
Y304658D01*
Y304685D01*
Y304730D01*
Y304785D01*
Y304857D01*
Y304941D01*
Y305029D01*
Y305129D01*
X435371Y305334D01*
X435366Y305540D01*
Y305640D01*
X435360Y305740D01*
Y305828D01*
X435355Y305906D01*
X435815Y305695D01*
D02*
G37*
G36*
X441277Y305629D02*
X441105Y305507D01*
Y305501D01*
X441099Y305490D01*
X441088Y305473D01*
X441077Y305451D01*
X441049Y305390D01*
X441010Y305312D01*
X440971Y305223D01*
X440927Y305135D01*
X440888Y305040D01*
X440855Y304957D01*
X441548D01*
X441820Y305229D01*
X442153Y304835D01*
X440810D01*
Y304830D01*
X440805Y304818D01*
X440794Y304802D01*
X440777Y304774D01*
X440760Y304741D01*
X440738Y304702D01*
X440694Y304613D01*
X440633Y304508D01*
X440572Y304391D01*
X440505Y304269D01*
X440433Y304141D01*
X441293D01*
X441587Y304435D01*
X441943Y304019D01*
X441088D01*
Y303176D01*
X441548D01*
X441843Y303448D01*
X442198Y303053D01*
X441088D01*
Y301899D01*
X441987Y302465D01*
X442048Y302399D01*
X442037Y302387D01*
X442009Y302365D01*
X441959Y302321D01*
X441898Y302265D01*
X441826Y302199D01*
X441743Y302127D01*
X441654Y302043D01*
X441560Y301955D01*
X441365Y301766D01*
X441277Y301672D01*
X441193Y301577D01*
X441116Y301494D01*
X441049Y301411D01*
X440999Y301339D01*
X440960Y301272D01*
X440688Y301605D01*
X440694Y301610D01*
X440705Y301627D01*
X440727Y301655D01*
X440749Y301688D01*
X440766Y301733D01*
X440783Y301788D01*
X440794Y301849D01*
Y301916D01*
Y303053D01*
X440472D01*
X440433Y303048D01*
X440389D01*
X440328Y303037D01*
X440261Y303026D01*
X440183Y303009D01*
X440100Y302987D01*
X439911Y303176D01*
X440794D01*
Y304019D01*
X440394D01*
Y304014D01*
X440383Y304008D01*
X440372Y303986D01*
X440355Y303964D01*
X440311Y303908D01*
X440250Y303831D01*
X440183Y303747D01*
X440111Y303653D01*
X440033Y303559D01*
X439956Y303470D01*
X439889Y303514D01*
Y303520D01*
X439895Y303525D01*
X439906Y303542D01*
X439917Y303564D01*
X439933Y303592D01*
X439950Y303625D01*
X439994Y303708D01*
X440050Y303808D01*
X440105Y303930D01*
X440172Y304075D01*
X440244Y304230D01*
X440322Y304402D01*
X440394Y304585D01*
X440472Y304785D01*
X440544Y304991D01*
X440616Y305207D01*
X440683Y305434D01*
X440744Y305667D01*
X440794Y305906D01*
X441277Y305629D01*
D02*
G37*
G36*
X443580Y305651D02*
X443391Y305507D01*
Y304097D01*
X444168D01*
X444462Y304391D01*
X444817Y303975D01*
X443391D01*
Y301771D01*
Y301760D01*
Y301727D01*
Y301677D01*
X443397Y301610D01*
Y301527D01*
X443402Y301427D01*
X443408Y301322D01*
X443413Y301211D01*
X443075Y301039D01*
Y301044D01*
Y301050D01*
Y301067D01*
Y301089D01*
Y301117D01*
Y301150D01*
X443080Y301189D01*
Y301233D01*
Y301283D01*
Y301339D01*
Y301400D01*
Y301466D01*
Y301544D01*
X443086Y301622D01*
Y301705D01*
Y301799D01*
Y301993D01*
X443091Y302216D01*
Y302454D01*
Y302720D01*
X443097Y303004D01*
Y303303D01*
Y303631D01*
Y303975D01*
X442525D01*
X442486Y303969D01*
X442442D01*
X442381Y303958D01*
X442314Y303947D01*
X442237Y303930D01*
X442153Y303908D01*
X441965Y304097D01*
X443097D01*
Y304102D01*
Y304108D01*
Y304141D01*
Y304191D01*
Y304263D01*
Y304352D01*
Y304452D01*
Y304563D01*
Y304691D01*
X443091Y304824D01*
Y304968D01*
Y305118D01*
X443086Y305268D01*
X443080Y305579D01*
X443075Y305884D01*
X443580Y305651D01*
D02*
G37*
%LPC*%
G36*
X449602Y305318D02*
X448575D01*
Y304263D01*
X449602D01*
Y305318D01*
D02*
G37*
G36*
Y304141D02*
X448575D01*
Y304136D01*
Y304114D01*
Y304086D01*
Y304041D01*
Y303991D01*
Y303930D01*
Y303864D01*
Y303786D01*
X448569Y303708D01*
Y303620D01*
X448564Y303442D01*
X448558Y303253D01*
X448553Y303070D01*
X449602D01*
Y304141D01*
D02*
G37*
G36*
X452920Y304585D02*
X451600D01*
Y302360D01*
X451605Y302365D01*
X451627Y302376D01*
X451655Y302393D01*
X451694Y302421D01*
X451744Y302449D01*
X451799Y302487D01*
X451860Y302537D01*
X451927Y302587D01*
X451999Y302648D01*
X452071Y302715D01*
X452149Y302787D01*
X452227Y302865D01*
X452304Y302948D01*
X452382Y303042D01*
X452454Y303137D01*
X452521Y303242D01*
X452526Y303248D01*
X452537Y303270D01*
X452554Y303298D01*
X452576Y303342D01*
X452604Y303398D01*
X452637Y303464D01*
X452671Y303536D01*
X452704Y303625D01*
X452737Y303714D01*
X452776Y303819D01*
X452809Y303930D01*
X452837Y304047D01*
X452865Y304175D01*
X452893Y304302D01*
X452909Y304441D01*
X452920Y304585D01*
D02*
G37*
G36*
X447337Y304330D02*
X446061D01*
Y303764D01*
X447337D01*
Y304330D01*
D02*
G37*
G36*
Y303642D02*
X446061D01*
Y303070D01*
X447337D01*
Y303642D01*
D02*
G37*
%LPD*%
D10*
X470500Y318000D02*
X475748D01*
X473000Y231500D02*
X478248D01*
X413000Y230624D02*
X418248D01*
X415624Y233248D02*
Y228000D01*
X412500Y317624D02*
X417748D01*
X415124Y320248D02*
Y315000D01*
M02*
