G04*
G04 #@! TF.GenerationSoftware,Altium Limited,Altium Designer,21.7.2 (23)*
G04*
G04 Layer_Physical_Order=2*
G04 Layer_Color=16711680*
%FSLAX25Y25*%
%MOIN*%
G70*
G04*
G04 #@! TF.SameCoordinates,FE62E581-B11F-4354-8991-A981333A1506*
G04*
G04*
G04 #@! TF.FilePolarity,Positive*
G04*
G01*
G75*
%ADD12C,0.01968*%
%ADD13C,0.07874*%
%ADD14C,0.02362*%
G36*
X139129Y116962D02*
X140412Y116573D01*
X141594Y115941D01*
X142630Y115091D01*
X143480Y114055D01*
X144112Y112872D01*
X144501Y111590D01*
X144632Y110266D01*
X144630Y110256D01*
Y7894D01*
X144632Y7884D01*
X144501Y6560D01*
X144112Y5277D01*
X143480Y4095D01*
X142630Y3059D01*
X141594Y2209D01*
X140412Y1577D01*
X139129Y1188D01*
X137805Y1057D01*
X137795Y1059D01*
X14496D01*
X14486Y1057D01*
X13162Y1188D01*
X11879Y1577D01*
X10697Y2209D01*
X9661Y3059D01*
X8811Y4095D01*
X8179Y5277D01*
X7790Y6560D01*
X7659Y7884D01*
X7661Y7894D01*
Y110256D01*
X7659Y110266D01*
X7790Y111590D01*
X8179Y112872D01*
X8811Y114055D01*
X9661Y115091D01*
X10697Y115941D01*
X11879Y116573D01*
X13162Y116962D01*
X14486Y117092D01*
X14496Y117090D01*
X137795D01*
X137805Y117092D01*
X139129Y116962D01*
D02*
G37*
%LPC*%
G36*
X95204Y111296D02*
X55834D01*
X55436Y111216D01*
X55099Y110991D01*
X54874Y110654D01*
X54795Y110256D01*
Y98445D01*
X54874Y98047D01*
X55099Y97710D01*
X55436Y97484D01*
X55834Y97405D01*
X95204D01*
X95602Y97484D01*
X95939Y97710D01*
X96165Y98047D01*
X96244Y98445D01*
Y110256D01*
X96165Y110654D01*
X95939Y110991D01*
X95602Y111216D01*
X95204Y111296D01*
D02*
G37*
G36*
X133858Y99485D02*
X118110D01*
X117712Y99405D01*
X117375Y99180D01*
X117150Y98843D01*
X117071Y98445D01*
Y19717D01*
X117150Y19319D01*
X117375Y18982D01*
X117712Y18757D01*
X118110Y18677D01*
X133796D01*
X133858Y18665D01*
X134256Y18744D01*
X134593Y18970D01*
X134819Y19307D01*
X134898Y19705D01*
Y98445D01*
X134819Y98843D01*
X134593Y99180D01*
X134256Y99405D01*
X133858Y99485D01*
D02*
G37*
G36*
X34181D02*
X18433D01*
X18035Y99405D01*
X17697Y99180D01*
X17472Y98843D01*
X17393Y98445D01*
Y19705D01*
X17472Y19307D01*
X17697Y18970D01*
X18035Y18744D01*
X18433Y18665D01*
X34181D01*
X34578Y18744D01*
X34916Y18970D01*
X35141Y19307D01*
X35220Y19705D01*
Y98445D01*
X35141Y98843D01*
X34916Y99180D01*
X34578Y99405D01*
X34181Y99485D01*
D02*
G37*
G36*
X96654Y91571D02*
X95354D01*
X94098Y91234D01*
X92973Y90584D01*
X92053Y89665D01*
X91403Y88539D01*
X91067Y87284D01*
Y85984D01*
X91403Y84728D01*
X92053Y83602D01*
X92973Y82683D01*
X93780Y82217D01*
Y56925D01*
X85927Y49073D01*
X85445Y48351D01*
X85276Y47500D01*
X85276Y47500D01*
Y26020D01*
X82500D01*
X82110Y25942D01*
X81779Y25721D01*
X81558Y25390D01*
X81480Y25000D01*
Y7500D01*
X81558Y7110D01*
X81779Y6779D01*
X82110Y6558D01*
X82500Y6480D01*
X92500D01*
X92890Y6558D01*
X93221Y6779D01*
X93442Y7110D01*
X93520Y7500D01*
Y25000D01*
X93442Y25390D01*
X93221Y25721D01*
X92890Y25942D01*
X92500Y26020D01*
X89724D01*
Y46579D01*
X97576Y54431D01*
X97576Y54431D01*
X98058Y55153D01*
X98228Y56004D01*
X98228Y56004D01*
Y82217D01*
X99035Y82683D01*
X99954Y83602D01*
X100604Y84728D01*
X100941Y85984D01*
Y87284D01*
X100604Y88539D01*
X99954Y89665D01*
X99035Y90584D01*
X97910Y91234D01*
X96654Y91571D01*
D02*
G37*
G36*
X57284D02*
X55984D01*
X54728Y91234D01*
X53602Y90584D01*
X52683Y89665D01*
X52033Y88539D01*
X51697Y87284D01*
Y85984D01*
X52033Y84728D01*
X52683Y83602D01*
X53602Y82683D01*
X54410Y82217D01*
Y55866D01*
X54410Y55866D01*
X54579Y55015D01*
X55061Y54294D01*
X62776Y46579D01*
Y26020D01*
X60000D01*
X59610Y25942D01*
X59279Y25721D01*
X59058Y25390D01*
X58980Y25000D01*
Y7500D01*
X59058Y7110D01*
X59279Y6779D01*
X59610Y6558D01*
X60000Y6480D01*
X70000D01*
X70390Y6558D01*
X70721Y6779D01*
X70942Y7110D01*
X71020Y7500D01*
Y25000D01*
X70942Y25390D01*
X70721Y25721D01*
X70390Y25942D01*
X70000Y26020D01*
X67224D01*
Y47500D01*
X67224Y47500D01*
X67054Y48351D01*
X66572Y49073D01*
X66572Y49073D01*
X58858Y56787D01*
Y82217D01*
X59665Y82683D01*
X60584Y83602D01*
X61234Y84728D01*
X61571Y85984D01*
Y87284D01*
X61234Y88539D01*
X60584Y89665D01*
X59665Y90584D01*
X58539Y91234D01*
X57284Y91571D01*
D02*
G37*
%LPD*%
G36*
X92500Y7500D02*
X82500D01*
Y25000D01*
X92500D01*
Y7500D01*
D02*
G37*
G36*
X70000D02*
X60000D01*
Y25000D01*
X70000D01*
Y7500D01*
D02*
G37*
D12*
X90303Y21606D02*
D03*
Y18803D02*
D03*
Y16000D02*
D03*
Y13197D02*
D03*
Y10394D02*
D03*
X87500Y21606D02*
D03*
Y18803D02*
D03*
Y16000D02*
D03*
Y13197D02*
D03*
Y10394D02*
D03*
X84697Y21606D02*
D03*
Y18803D02*
D03*
Y16000D02*
D03*
Y13197D02*
D03*
Y10394D02*
D03*
X67803Y21606D02*
D03*
Y18803D02*
D03*
Y16000D02*
D03*
Y13197D02*
D03*
Y10394D02*
D03*
X65000Y21606D02*
D03*
Y18803D02*
D03*
Y16000D02*
D03*
Y13197D02*
D03*
Y10394D02*
D03*
X62197Y21606D02*
D03*
Y18803D02*
D03*
Y16000D02*
D03*
Y13197D02*
D03*
Y10394D02*
D03*
D13*
X56634Y86634D02*
D03*
X96004D02*
D03*
D14*
X87500Y18500D02*
Y47500D01*
X96004Y56004D01*
Y86634D01*
X65000Y20500D02*
Y47500D01*
X56634Y55866D02*
X65000Y47500D01*
X56634Y55866D02*
Y86634D01*
M02*
