M48
;Layer_Color=9474304
;FILE_FORMAT=2:5
INCH,TZ
;TYPE=PLATED
T1F00S00C0.01181
T2F00S00C0.06299
%
T01
X62197Y10394
X65000
X67803
Y13197
Y16000
Y18803
Y21606
X65000
Y18803
Y16000
Y13197
X62197
Y16000
Y18803
Y21606
X84697
X87500
X90303
Y18803
Y16000
Y13197
Y10394
X87500
Y13197
Y16000
Y18803
X84697
Y16000
Y13197
Y10394
T02
X56634Y86634
X96004
M30
