G04*
G04 #@! TF.GenerationSoftware,Altium Limited,Altium Designer,21.7.2 (23)*
G04*
G04 Layer_Color=2752767*
%FSLAX25Y25*%
%MOIN*%
G70*
G04*
G04 #@! TF.SameCoordinates,5A5A8417-ECC9-49B4-8E40-219DEDDCC1CE*
G04*
G04*
G04 #@! TF.FilePolarity,Positive*
G04*
G01*
G75*
%ADD10C,0.00200*%
%ADD11C,0.00267*%
D10*
X89503Y20806D02*
Y22406D01*
X91103D01*
Y20806D01*
X89503D01*
Y18003D02*
Y19603D01*
X91103D01*
Y18003D01*
X89503D01*
Y15200D02*
Y16800D01*
X91103D01*
Y15200D01*
X89503D01*
Y12397D02*
Y13997D01*
X91103D01*
Y12397D01*
X89503D01*
Y9594D02*
Y11194D01*
X91103D01*
Y9594D01*
X89503D01*
X86700Y20806D02*
Y22406D01*
X88300D01*
Y20806D01*
X86700D01*
Y18003D02*
Y19603D01*
X88300D01*
Y18003D01*
X86700D01*
Y15200D02*
Y16800D01*
X88300D01*
Y15200D01*
X86700D01*
Y12397D02*
Y13997D01*
X88300D01*
Y12397D01*
X86700D01*
Y9594D02*
Y11194D01*
X88300D01*
Y9594D01*
X86700D01*
X83897Y20806D02*
Y22406D01*
X85497D01*
Y20806D01*
X83897D01*
Y18003D02*
Y19603D01*
X85497D01*
Y18003D01*
X83897D01*
Y15200D02*
Y16800D01*
X85497D01*
Y15200D01*
X83897D01*
Y12397D02*
Y13997D01*
X85497D01*
Y12397D01*
X83897D01*
Y9594D02*
Y11194D01*
X85497D01*
Y9594D01*
X83897D01*
X67003Y20806D02*
Y22406D01*
X68603D01*
Y20806D01*
X67003D01*
Y18003D02*
Y19603D01*
X68603D01*
Y18003D01*
X67003D01*
Y15200D02*
Y16800D01*
X68603D01*
Y15200D01*
X67003D01*
Y12397D02*
Y13997D01*
X68603D01*
Y12397D01*
X67003D01*
Y9594D02*
Y11194D01*
X68603D01*
Y9594D01*
X67003D01*
X64200Y20806D02*
Y22406D01*
X65800D01*
Y20806D01*
X64200D01*
Y18003D02*
Y19603D01*
X65800D01*
Y18003D01*
X64200D01*
Y15200D02*
Y16800D01*
X65800D01*
Y15200D01*
X64200D01*
Y12397D02*
Y13997D01*
X65800D01*
Y12397D01*
X64200D01*
Y9594D02*
Y11194D01*
X65800D01*
Y9594D01*
X64200D01*
X61397Y20806D02*
Y22406D01*
X62997D01*
Y20806D01*
X61397D01*
Y18003D02*
Y19603D01*
X62997D01*
Y18003D01*
X61397D01*
Y15200D02*
Y16800D01*
X62997D01*
Y15200D01*
X61397D01*
Y12397D02*
Y13997D01*
X62997D01*
Y12397D01*
X61397D01*
Y9594D02*
Y11194D01*
X62997D01*
Y9594D01*
X61397D01*
D11*
X57434Y86634D02*
G03*
X57434Y86634I-800J0D01*
G01*
X96804D02*
G03*
X96804Y86634I-800J0D01*
G01*
M02*
