G04*
G04 #@! TF.GenerationSoftware,Altium Limited,Altium Designer,21.7.2 (23)*
G04*
G04 Layer_Color=32896*
%FSLAX25Y25*%
%MOIN*%
G70*
G04*
G04 #@! TF.SameCoordinates,CD49883A-D9D7-4F0A-866F-15B73C44CB22*
G04*
G04*
G04 #@! TF.FilePolarity,Positive*
G04*
G01*
G75*
%ADD11C,0.00600*%
%ADD13C,0.00591*%
D11*
X334441Y303907D02*
Y307493D01*
X340159Y299691D02*
Y303753D01*
X334441Y299691D02*
X340159D01*
Y307647D02*
Y311709D01*
X334441D02*
X340159D01*
D13*
X355991Y279090D02*
X358614D01*
X356291Y333102D02*
X358914D01*
X357602Y334414D02*
Y331790D01*
X351862Y316109D02*
X355798D01*
Y314142D01*
X355142Y313486D01*
X354486D01*
X353830D01*
X353174Y314142D01*
Y316109D01*
Y311518D02*
Y310206D01*
X353830Y309550D01*
X355798D01*
Y311518D01*
X355142Y312174D01*
X354486Y311518D01*
Y309550D01*
X352518Y307582D02*
X353174D01*
Y308238D01*
Y306926D01*
Y307582D01*
X355142D01*
X355798Y306926D01*
X352518Y304302D02*
X353174D01*
Y304958D01*
Y303646D01*
Y304302D01*
X355142D01*
X355798Y303646D01*
Y299711D02*
Y301023D01*
X355142Y301678D01*
X353830D01*
X353174Y301023D01*
Y299711D01*
X353830Y299055D01*
X354486D01*
Y301678D01*
X353174Y297743D02*
X355798D01*
X354486D01*
X353830Y297087D01*
X353174Y296431D01*
Y295775D01*
Y293807D02*
X355142D01*
X355798Y293151D01*
Y291183D01*
X356453D01*
X357109Y291839D01*
Y292495D01*
X355798Y291183D02*
X353174D01*
X403274Y312709D02*
X407209D01*
X405242D01*
X404586Y312053D01*
Y310742D01*
X405242Y310086D01*
X407209D01*
Y306806D02*
Y308118D01*
X406554Y308774D01*
X405242D01*
X404586Y308118D01*
Y306806D01*
X405242Y306150D01*
X405898D01*
Y308774D01*
X404586Y304182D02*
Y302870D01*
X405242Y302214D01*
X407209D01*
Y304182D01*
X406554Y304838D01*
X405898Y304182D01*
Y302214D01*
X403274Y298278D02*
X407209D01*
Y300246D01*
X406554Y300902D01*
X405242D01*
X404586Y300246D01*
Y298278D01*
X363891Y314891D02*
X366514D01*
X363491Y293602D02*
X366114D01*
X364802Y294914D02*
Y292290D01*
X391191Y274490D02*
X393814D01*
X412391Y294702D02*
X415014D01*
X413702Y296014D02*
Y293390D01*
X412491Y317590D02*
X415114D01*
X391290Y337102D02*
X393914D01*
X392602Y338414D02*
Y335790D01*
M02*
