G04*
G04 #@! TF.GenerationSoftware,Altium Limited,Altium Designer,21.7.2 (23)*
G04*
G04 Layer_Physical_Order=1*
G04 Layer_Color=255*
%FSLAX25Y25*%
%MOIN*%
G70*
G04*
G04 #@! TF.SameCoordinates,23757FEE-CE1E-475D-8FA0-C284C61354F4*
G04*
G04*
G04 #@! TF.FilePolarity,Positive*
G04*
G01*
G75*
%ADD14R,0.03800X0.03500*%
%ADD15R,0.03500X0.03800*%
%ADD16R,0.04213X0.02362*%
%ADD25C,0.01500*%
%ADD26R,0.05906X0.05906*%
%ADD27C,0.05906*%
%ADD28C,0.10630*%
%ADD29C,0.24410*%
%ADD30C,0.01968*%
G36*
X367995Y352185D02*
X369370Y352049D01*
X370691Y351648D01*
X371909Y350997D01*
X372977Y350121D01*
X373853Y349054D01*
X374504Y347835D01*
X374905Y346514D01*
X375041Y345139D01*
X375041D01*
Y341202D01*
X375104Y340885D01*
X375283Y340616D01*
X375552Y340437D01*
X375869Y340374D01*
X415239D01*
Y340374D01*
X416614Y340238D01*
X417935Y339837D01*
X419153Y339186D01*
X420221Y338310D01*
X421097Y337243D01*
X421748Y336024D01*
X422149Y334703D01*
X422285Y333328D01*
X422285D01*
Y278210D01*
X422285D01*
X422149Y276835D01*
X421748Y275514D01*
X421097Y274296D01*
X420221Y273228D01*
X419153Y272352D01*
X417935Y271701D01*
X416614Y271300D01*
X415239Y271164D01*
Y271164D01*
X375869D01*
X375552Y271101D01*
X375283Y270922D01*
X375104Y270653D01*
X375041Y270336D01*
Y266399D01*
X375041D01*
X374905Y265024D01*
X374504Y263703D01*
X373853Y262485D01*
X372977Y261417D01*
X371909Y260541D01*
X370691Y259890D01*
X369370Y259489D01*
X367995Y259353D01*
Y259353D01*
X336499D01*
Y259353D01*
X335124Y259489D01*
X333803Y259890D01*
X332585Y260541D01*
X331517Y261417D01*
X330641Y262485D01*
X329990Y263703D01*
X329589Y265024D01*
X329453Y266399D01*
X329453D01*
Y277953D01*
X329929Y278108D01*
X330376Y277492D01*
X331844Y276024D01*
X333524Y274804D01*
X335373Y273861D01*
X337348Y273220D01*
X339398Y272895D01*
X341474D01*
X343524Y273220D01*
X345499Y273861D01*
X347348Y274804D01*
X349028Y276024D01*
X350496Y277492D01*
X351716Y279171D01*
X352659Y281021D01*
X353300Y282996D01*
X353523Y284403D01*
X354031Y284413D01*
X354064Y284247D01*
X354539Y283100D01*
X355228Y282069D01*
X356105Y281191D01*
X357137Y280502D01*
X358284Y280027D01*
X359501Y279785D01*
X360741D01*
X361959Y280027D01*
X363105Y280502D01*
X364137Y281191D01*
X365014Y282069D01*
X365703Y283100D01*
X366178Y284247D01*
X366420Y285464D01*
Y286704D01*
X366178Y287922D01*
X365703Y289068D01*
X365014Y290100D01*
X364137Y290977D01*
X363105Y291666D01*
X361959Y292141D01*
X360741Y292383D01*
X359501D01*
X358284Y292141D01*
X357137Y291666D01*
X356105Y290977D01*
X355228Y290100D01*
X354539Y289068D01*
X354064Y287922D01*
X354031Y287755D01*
X353523Y287765D01*
X353300Y289173D01*
X352659Y291147D01*
X351716Y292997D01*
X350496Y294676D01*
X349028Y296144D01*
X347348Y297364D01*
X345499Y298307D01*
X343524Y298948D01*
X341474Y299273D01*
X339398D01*
X337348Y298948D01*
X335373Y298307D01*
X333524Y297364D01*
X331844Y296144D01*
X330376Y294676D01*
X329929Y294061D01*
X329453Y294215D01*
Y317323D01*
X329929Y317478D01*
X330376Y316862D01*
X331844Y315394D01*
X333524Y314174D01*
X335373Y313231D01*
X337348Y312590D01*
X339398Y312265D01*
X341474D01*
X343524Y312590D01*
X345499Y313231D01*
X347348Y314174D01*
X349028Y315394D01*
X350496Y316862D01*
X351716Y318542D01*
X352659Y320391D01*
X353300Y322366D01*
X353523Y323773D01*
X354031Y323783D01*
X354064Y323617D01*
X354539Y322470D01*
X355228Y321439D01*
X356105Y320561D01*
X357137Y319872D01*
X358284Y319397D01*
X359501Y319155D01*
X360741D01*
X361959Y319397D01*
X363105Y319872D01*
X364137Y320561D01*
X365014Y321439D01*
X365703Y322470D01*
X366178Y323617D01*
X366211Y323783D01*
X366719Y323773D01*
X366942Y322366D01*
X367583Y320391D01*
X368526Y318542D01*
X369746Y316862D01*
X371165Y315443D01*
X370892Y315169D01*
X370552Y314661D01*
X370432Y314061D01*
Y307837D01*
X369313D01*
Y304829D01*
X366340Y301857D01*
X365840Y301983D01*
Y303940D01*
X358360D01*
Y301767D01*
X353537D01*
Y304087D01*
X348463D01*
Y298713D01*
X351797D01*
X352200Y298633D01*
X358360D01*
Y296460D01*
X365840D01*
Y298633D01*
X366900D01*
X367500Y298752D01*
X368008Y299092D01*
X371679Y302763D01*
X374687D01*
Y307837D01*
X373568D01*
Y313303D01*
X373981Y313620D01*
X374743Y313231D01*
X376718Y312590D01*
X378768Y312265D01*
X380844D01*
X382894Y312590D01*
X384869Y313231D01*
X386719Y314174D01*
X388398Y315394D01*
X389866Y316862D01*
X391086Y318542D01*
X392029Y320391D01*
X392670Y322366D01*
X392995Y324416D01*
Y326492D01*
X392670Y328542D01*
X392029Y330517D01*
X391086Y332367D01*
X389866Y334046D01*
X388398Y335514D01*
X386719Y336734D01*
X384869Y337677D01*
X382894Y338318D01*
X380844Y338643D01*
X378768D01*
X376718Y338318D01*
X374743Y337677D01*
X372894Y336734D01*
X371214Y335514D01*
X369746Y334046D01*
X368526Y332367D01*
X367583Y330517D01*
X366942Y328542D01*
X366719Y327135D01*
X366211Y327126D01*
X366178Y327291D01*
X365703Y328438D01*
X365014Y329470D01*
X364137Y330347D01*
X363105Y331036D01*
X361959Y331511D01*
X360741Y331753D01*
X359501D01*
X358284Y331511D01*
X357137Y331036D01*
X356105Y330347D01*
X355228Y329470D01*
X354539Y328438D01*
X354064Y327291D01*
X354031Y327126D01*
X353523Y327135D01*
X353300Y328542D01*
X352659Y330517D01*
X351716Y332367D01*
X350496Y334046D01*
X349028Y335514D01*
X347348Y336734D01*
X345499Y337677D01*
X343524Y338318D01*
X341474Y338643D01*
X339398D01*
X337348Y338318D01*
X335373Y337677D01*
X333524Y336734D01*
X331844Y335514D01*
X330376Y334046D01*
X329929Y333431D01*
X329453Y333585D01*
Y345139D01*
X329453D01*
X329589Y346514D01*
X329990Y347835D01*
X330641Y349054D01*
X331517Y350121D01*
X332585Y350997D01*
X333803Y351648D01*
X335124Y352049D01*
X336499Y352185D01*
Y352185D01*
X367995D01*
Y352185D01*
D02*
G37*
%LPC*%
G36*
X413592Y314840D02*
X412608D01*
X411656Y314585D01*
X410804Y314093D01*
X410107Y313397D01*
X409686Y312667D01*
X400800D01*
X400200Y312548D01*
X399692Y312208D01*
X398125Y310642D01*
X395132D01*
Y311009D01*
X389345D01*
Y307072D01*
X395132D01*
Y307506D01*
X398774D01*
X399374Y307626D01*
X399882Y307965D01*
X401449Y309532D01*
X409686D01*
X410107Y308804D01*
X410804Y308107D01*
X411656Y307615D01*
X412608Y307360D01*
X413592D01*
X414544Y307615D01*
X415396Y308107D01*
X416093Y308804D01*
X416585Y309656D01*
X416840Y310608D01*
Y311592D01*
X416585Y312544D01*
X416093Y313397D01*
X415396Y314093D01*
X414544Y314585D01*
X413592Y314840D01*
D02*
G37*
G36*
X380870Y308847D02*
X380087D01*
X379363Y308547D01*
X378809Y307993D01*
X378745Y307837D01*
X376213D01*
Y302763D01*
X381587D01*
Y305207D01*
X381593Y305209D01*
X382147Y305763D01*
X382447Y306487D01*
Y307270D01*
X382147Y307993D01*
X381593Y308547D01*
X380870Y308847D01*
D02*
G37*
G36*
X385192Y311368D02*
X384408D01*
X383685Y311069D01*
X383131Y310515D01*
X382832Y309792D01*
Y309008D01*
X383131Y308285D01*
X383232Y308184D01*
Y305000D01*
X383352Y304400D01*
X383692Y303892D01*
X387132Y300451D01*
X387640Y300112D01*
X388240Y299992D01*
X389345D01*
Y299591D01*
X395132D01*
Y303528D01*
X389345D01*
Y303236D01*
X388845Y303172D01*
X386368Y305649D01*
Y308184D01*
X386469Y308285D01*
X386769Y309008D01*
Y309792D01*
X386469Y310515D01*
X385915Y311069D01*
X385192Y311368D01*
D02*
G37*
G36*
X416840Y304840D02*
X409360D01*
Y297360D01*
X416840D01*
Y304840D01*
D02*
G37*
%LPD*%
D14*
X372000Y305300D02*
D03*
X378900D02*
D03*
D15*
X351000Y308300D02*
D03*
Y301400D02*
D03*
D16*
X392238Y309040D02*
D03*
Y301560D02*
D03*
X401963Y305300D02*
D03*
D25*
X400800Y311100D02*
X413100D01*
X398774Y309074D02*
X400800Y311100D01*
X392272Y309074D02*
X398774D01*
X392238Y309040D02*
X392272Y309074D01*
X372000Y314061D02*
X379806Y321867D01*
Y325454D01*
X372000Y305300D02*
Y314061D01*
X371850Y305300D02*
X372000D01*
X384800Y305000D02*
X388240Y301560D01*
X384800Y305000D02*
Y309400D01*
X388240Y301560D02*
X392238D01*
X351000Y301250D02*
X352000Y300250D01*
X352150D01*
X352200Y300200D01*
X362100D01*
X351000Y301250D02*
Y301400D01*
X362100Y300200D02*
X366900D01*
X370850Y304150D01*
Y304300D01*
X371850Y305300D01*
D26*
X362100Y300200D02*
D03*
X413100Y301100D02*
D03*
D27*
X362100Y310200D02*
D03*
X413100Y311100D02*
D03*
D28*
X360121Y286084D02*
D03*
Y325454D02*
D03*
D29*
X340436Y286084D02*
D03*
Y325454D02*
D03*
X379806D02*
D03*
Y286084D02*
D03*
D30*
X384800Y309400D02*
D03*
X380478Y306878D02*
D03*
M02*
