G04*
G04 #@! TF.GenerationSoftware,Altium Limited,Altium Designer,21.7.2 (23)*
G04*
G04 Layer_Color=65535*
%FSLAX25Y25*%
%MOIN*%
G70*
G04*
G04 #@! TF.SameCoordinates,23757FEE-CE1E-475D-8FA0-C284C61354F4*
G04*
G04*
G04 #@! TF.FilePolarity,Positive*
G04*
G01*
G75*
%ADD10C,0.01000*%
%ADD11C,0.00787*%
%ADD12C,0.00600*%
%ADD13C,0.00591*%
D10*
X353956Y310348D02*
G03*
X348100Y310400I-2959J-3492D01*
G01*
X348044Y299252D02*
G03*
X353900Y299200I2959J3492D01*
G01*
X381900Y302300D02*
Y308300D01*
X369000Y302200D02*
Y308300D01*
X377200D02*
X381900D01*
X377200Y302300D02*
X381900D01*
X369000Y302200D02*
X373700D01*
X369000Y308300D02*
X373700D01*
X348000Y299400D02*
Y303100D01*
X354000Y299300D02*
Y303100D01*
Y306600D02*
Y310300D01*
X348000Y306600D02*
Y310300D01*
D11*
X357100Y315200D02*
X367100D01*
Y295200D02*
Y315200D01*
X357100Y295200D02*
X367100D01*
X357100D02*
Y315200D01*
X408100Y296100D02*
Y316100D01*
Y296100D02*
X418100D01*
Y316100D01*
X408100D02*
X418100D01*
D12*
X393651Y299252D02*
X400550D01*
Y303353D01*
X393651Y311348D02*
X400550D01*
Y307247D02*
Y311348D01*
X393651Y303507D02*
Y307093D01*
D13*
X391390Y275890D02*
X394408D01*
X390191Y336699D02*
X393208D01*
X391699Y338208D02*
Y335191D01*
X415691Y318590D02*
X418708D01*
X353890Y317191D02*
X356908D01*
X353091Y292899D02*
X356108D01*
X354599Y294408D02*
Y291390D01*
X414937Y291000D02*
Y294017D01*
X413428Y292509D02*
X416446D01*
M02*
