G04*
G04 #@! TF.GenerationSoftware,Altium Limited,Altium Designer,21.7.2 (23)*
G04*
G04 Layer_Color=2752767*
%FSLAX25Y25*%
%MOIN*%
G70*
G04*
G04 #@! TF.SameCoordinates,54EDC3A8-452A-4DEC-99EC-A8DEE816F9F2*
G04*
G04*
G04 #@! TF.FilePolarity,Positive*
G04*
G01*
G75*
%ADD10C,0.00200*%
%ADD11C,0.00267*%
D10*
X361300Y299400D02*
Y301000D01*
X362900D01*
Y299400D01*
X361300D01*
Y309400D02*
Y311000D01*
X362900D01*
Y309400D01*
X361300D01*
X412300Y310300D02*
Y311900D01*
X413900D01*
Y310300D01*
X412300D01*
Y300300D02*
Y301900D01*
X413900D01*
Y300300D01*
X412300D01*
X340436Y285284D02*
X339636Y286884D01*
X341236D01*
X340436Y285284D01*
Y324654D02*
X339636Y326254D01*
X341236D01*
X340436Y324654D01*
X379806D02*
X379006Y326254D01*
X380606D01*
X379806Y324654D01*
X384800Y308600D02*
X385200Y309000D01*
X385600D01*
X385200Y309400D01*
X385600Y309800D01*
X385200D01*
X384800Y310200D01*
X384400Y309800D01*
X384000D01*
X384400Y309400D01*
X384000Y309000D01*
X384400D01*
X384800Y308600D01*
X380478Y306078D02*
X380878Y306478D01*
X381278D01*
X380878Y306878D01*
X381278Y307278D01*
X380878D01*
X380478Y307678D01*
X380078Y307278D01*
X379678D01*
X380078Y306878D01*
X379678Y306478D01*
X380078D01*
X380478Y306078D01*
X379806Y285284D02*
X379006Y286884D01*
X380606D01*
X379806Y285284D01*
D11*
X360921Y286084D02*
G03*
X360921Y286084I-800J0D01*
G01*
Y325454D02*
G03*
X360921Y325454I-800J0D01*
G01*
M02*
