G04*
G04 #@! TF.GenerationSoftware,Altium Limited,Altium Designer,21.7.2 (23)*
G04*
G04 Layer_Color=65535*
%FSLAX25Y25*%
%MOIN*%
G70*
G04*
G04 #@! TF.SameCoordinates,2E91784B-995A-45F4-8D6C-50379365C1DD*
G04*
G04*
G04 #@! TF.FilePolarity,Positive*
G04*
G01*
G75*
%ADD10C,0.01000*%
%ADD11C,0.00787*%
%ADD12C,0.00600*%
%ADD13C,0.00591*%
D10*
X348044Y299252D02*
G03*
X353900Y299200I2959J3492D01*
G01*
X353956Y310348D02*
G03*
X348100Y310400I-2959J-3492D01*
G01*
X380800Y302100D02*
Y308100D01*
X367900Y302000D02*
Y308100D01*
X376100D02*
X380800D01*
X376100Y302100D02*
X380800D01*
X367900Y302000D02*
X372600D01*
X367900Y308100D02*
X372600D01*
X348000Y306600D02*
Y310300D01*
X354000Y306600D02*
Y310300D01*
Y299300D02*
Y303100D01*
X348000Y299400D02*
Y303100D01*
D11*
X357100Y295200D02*
Y315200D01*
Y295200D02*
X367100D01*
Y315200D01*
X357100D02*
X367100D01*
X408100Y316100D02*
X418100D01*
Y296100D02*
Y316100D01*
X408100Y296100D02*
X418100D01*
X408100D02*
Y316100D01*
D12*
X393651Y303507D02*
Y307093D01*
X400550Y307247D02*
Y311348D01*
X393651D02*
X400550D01*
Y299252D02*
Y303353D01*
X393651Y299252D02*
X400550D01*
D13*
X389690Y273890D02*
X392314D01*
X363291Y317990D02*
X365914D01*
X363291Y292302D02*
X365914D01*
X364602Y293614D02*
Y290990D01*
X389891Y336702D02*
X392514D01*
X391202Y338014D02*
Y335390D01*
X413791Y318891D02*
X416414D01*
X413191Y292802D02*
X415814D01*
X414502Y294114D02*
Y291491D01*
M02*
