G04*
G04 #@! TF.GenerationSoftware,Altium Limited,Altium Designer,21.7.2 (23)*
G04*
G04 Layer_Color=128*
%FSLAX25Y25*%
%MOIN*%
G70*
G04*
G04 #@! TF.SameCoordinates,54EDC3A8-452A-4DEC-99EC-A8DEE816F9F2*
G04*
G04*
G04 #@! TF.FilePolarity,Positive*
G04*
G01*
G75*
%ADD10C,0.00200*%
D10*
X360328Y300200D02*
X363872D01*
X362100Y298428D02*
Y301972D01*
X360328Y310200D02*
X363872D01*
X362100Y308428D02*
Y311972D01*
X411328Y311100D02*
X414872D01*
X413100Y309328D02*
Y312872D01*
X411328Y301100D02*
X414872D01*
X413100Y299328D02*
Y302872D01*
X355160Y286084D02*
X365082D01*
X360121Y281123D02*
Y291045D01*
X332129Y286084D02*
X348743D01*
X340436Y277777D02*
Y294391D01*
X332129Y325454D02*
X348743D01*
X340436Y317147D02*
Y333761D01*
X371499Y325454D02*
X388113D01*
X379806Y317147D02*
Y333761D01*
X384209Y309400D02*
X385390D01*
X384800Y308809D02*
Y309991D01*
X379888Y306878D02*
X381069D01*
X380478Y306288D02*
Y307469D01*
X371499Y286084D02*
X388113D01*
X379806Y277777D02*
Y294391D01*
X355160Y325454D02*
X365082D01*
X360121Y320494D02*
Y330415D01*
M02*
