G04*
G04 #@! TF.GenerationSoftware,Altium Limited,Altium Designer,21.7.2 (23)*
G04*
G04 Layer_Color=8388736*
%FSLAX25Y25*%
%MOIN*%
G70*
G04*
G04 #@! TF.SameCoordinates,23757FEE-CE1E-475D-8FA0-C284C61354F4*
G04*
G04*
G04 #@! TF.FilePolarity,Negative*
G04*
G01*
G75*
%ADD17R,0.04600X0.04300*%
%ADD18R,0.04300X0.04600*%
%ADD19R,0.05013X0.03162*%
%ADD20R,0.06706X0.06706*%
%ADD21C,0.06706*%
%ADD22C,0.11430*%
%ADD23C,0.25210*%
%ADD24C,0.02769*%
G36*
X553307Y412896D02*
X553311Y412893D01*
X553315Y412882D01*
X553322Y412867D01*
X553337Y412830D01*
X553363Y412778D01*
X553389Y412719D01*
X553426Y412648D01*
X553463Y412571D01*
X553507Y412489D01*
X553555Y412404D01*
X553607Y412319D01*
X553725Y412145D01*
X553788Y412064D01*
X553851Y411986D01*
X553918Y411916D01*
X553988Y411857D01*
X553992Y411853D01*
X554007Y411842D01*
X554025Y411827D01*
X554055Y411805D01*
X554088Y411779D01*
X554132Y411749D01*
X554180Y411716D01*
X554232Y411679D01*
X554291Y411642D01*
X554354Y411601D01*
X554425Y411561D01*
X554495Y411516D01*
X554650Y411435D01*
X554813Y411357D01*
Y411372D01*
X554810Y411394D01*
Y411420D01*
X554806Y411450D01*
X554802Y411487D01*
X554798Y411524D01*
X554791Y411568D01*
X554780Y411657D01*
X554761Y411753D01*
X554743Y411842D01*
X554728Y411882D01*
X554717Y411919D01*
X555050Y411949D01*
Y411938D01*
X555054Y411927D01*
Y411908D01*
X555061Y411886D01*
X555065Y411857D01*
X555076Y411823D01*
X555087Y411786D01*
X555105Y411746D01*
X555124Y411697D01*
X555150Y411646D01*
X555180Y411590D01*
X555217Y411531D01*
X555257Y411464D01*
X555302Y411398D01*
X555357Y411324D01*
X555361Y411320D01*
X555372Y411305D01*
X555387Y411287D01*
X555409Y411257D01*
X555435Y411228D01*
X555461Y411191D01*
X555527Y411105D01*
X555601Y411017D01*
X555672Y410924D01*
X555709Y410884D01*
X555738Y410843D01*
X555768Y410810D01*
X555794Y410780D01*
Y411635D01*
X555790Y411668D01*
Y411716D01*
X555783Y411768D01*
X555775Y411827D01*
X555764Y411894D01*
X555749Y411960D01*
X555945Y412042D01*
Y410547D01*
X555949D01*
X555953Y410543D01*
X555964D01*
X555975Y410539D01*
X555994Y410536D01*
X556012Y410532D01*
X556064Y410528D01*
X556130Y410532D01*
X556212Y410543D01*
X556260Y410554D01*
X556308Y410569D01*
X556363Y410584D01*
X556419Y410606D01*
X556497Y410510D01*
X556493Y410506D01*
X556489Y410499D01*
X556478Y410484D01*
X556467Y410465D01*
X556430Y410417D01*
X556389Y410365D01*
X556341Y410310D01*
X556297Y410262D01*
X556271Y410243D01*
X556252Y410229D01*
X556230Y410218D01*
X556212Y410210D01*
X556208D01*
X556197Y410206D01*
X556182D01*
X556160Y410203D01*
X556116D01*
X556093Y410206D01*
X556075Y410210D01*
X556071D01*
X556060Y410218D01*
X556042Y410229D01*
X556023Y410240D01*
X556001Y410262D01*
X555979Y410284D01*
X555960Y410314D01*
X555945Y410351D01*
Y409433D01*
X556142Y409159D01*
X555794Y408967D01*
Y410665D01*
X555620Y410476D01*
Y410480D01*
X555616Y410484D01*
X555612Y410495D01*
X555609Y410510D01*
X555601Y410528D01*
X555590Y410550D01*
X555568Y410606D01*
X555535Y410676D01*
X555490Y410758D01*
X555439Y410854D01*
X555372Y410957D01*
X555368Y410961D01*
X555365Y410972D01*
X555353Y410987D01*
X555339Y411009D01*
X555324Y411039D01*
X555305Y411068D01*
X555283Y411109D01*
X555257Y411150D01*
X555231Y411194D01*
X555205Y411246D01*
X555150Y411353D01*
X555091Y411468D01*
X555035Y411594D01*
Y409970D01*
X555039Y409973D01*
X555054Y409988D01*
X555080Y410010D01*
X555120Y410047D01*
X555146Y410070D01*
X555176Y410095D01*
X555209Y410125D01*
X555246Y410158D01*
X555287Y410195D01*
X555335Y410240D01*
X555387Y410284D01*
X555442Y410336D01*
X555546Y410254D01*
Y410251D01*
X555542Y410247D01*
X555527Y410225D01*
X555509Y410192D01*
X555479Y410147D01*
X555446Y410095D01*
X555409Y410036D01*
X555368Y409973D01*
X555324Y409910D01*
X555276Y409847D01*
X555231Y409785D01*
X555183Y409725D01*
X555139Y409674D01*
X555098Y409633D01*
X555057Y409600D01*
X555024Y409577D01*
X555009Y409570D01*
X554994D01*
X554987D01*
X554972D01*
X554950D01*
X554920D01*
X554895Y409574D01*
X554865D01*
X554843Y409577D01*
X554824Y409581D01*
X554821D01*
X554810Y409588D01*
X554791Y409596D01*
X554769Y409607D01*
X554743Y409625D01*
X554717Y409648D01*
X554687Y409674D01*
X554662Y409703D01*
X554658Y409707D01*
X554650Y409718D01*
X554639Y409733D01*
X554628Y409751D01*
X554606Y409796D01*
X554599Y409814D01*
X554595Y409833D01*
Y409840D01*
X554606Y409859D01*
X554613Y409873D01*
X554628Y409881D01*
X554647Y409892D01*
X554673Y409899D01*
X554676D01*
X554691Y409903D01*
X554710Y409907D01*
X554736Y409914D01*
X554769Y409922D01*
X554806Y409933D01*
X554850Y409944D01*
X554898Y409959D01*
X554872Y410388D01*
X553688Y410791D01*
X553685D01*
X553670Y410795D01*
X553648Y410798D01*
X553625Y410795D01*
X553600Y410787D01*
X553581Y410769D01*
X553566Y410739D01*
X553559Y410721D01*
Y410166D01*
X553563Y410151D01*
X553566Y410129D01*
X553577Y410099D01*
X553592Y410070D01*
X553614Y410036D01*
X553648Y410007D01*
X553692Y409981D01*
X553699Y409977D01*
X553707Y409973D01*
X553722Y409966D01*
X553736Y409959D01*
X553759Y409951D01*
X553785Y409940D01*
X553814Y409925D01*
X553851Y409910D01*
X553892Y409896D01*
X553940Y409877D01*
X553992Y409855D01*
X554051Y409829D01*
X554118Y409807D01*
X554192Y409777D01*
X554269Y409748D01*
Y409611D01*
X554266D01*
X554251Y409614D01*
X554229Y409622D01*
X554199Y409629D01*
X554166Y409637D01*
X554125Y409648D01*
X554040Y409670D01*
X553947Y409692D01*
X553859Y409711D01*
X553818Y409718D01*
X553785Y409725D01*
X553755Y409729D01*
X553733D01*
X553729D01*
X553718D01*
X553696Y409725D01*
X553674Y409722D01*
X553644Y409714D01*
X553614Y409699D01*
X553577Y409685D01*
X553544Y409662D01*
X553540Y409666D01*
X553533Y409674D01*
X553522Y409685D01*
X553507Y409699D01*
X553489Y409722D01*
X553466Y409744D01*
X553444Y409773D01*
X553422Y409807D01*
X553381Y409881D01*
X553344Y409970D01*
X553330Y410018D01*
X553318Y410070D01*
X553311Y410125D01*
Y410850D01*
X553315Y410869D01*
Y410887D01*
X553330Y410939D01*
X553337Y410969D01*
X553352Y410998D01*
X553370Y411024D01*
X553389Y411050D01*
X553415Y411068D01*
X553448Y411083D01*
X553485Y411094D01*
X553526Y411098D01*
X553577Y411091D01*
X553633Y411076D01*
X554858Y410662D01*
X554832Y411076D01*
X554824Y411080D01*
X554802Y411091D01*
X554769Y411105D01*
X554721Y411128D01*
X554665Y411154D01*
X554602Y411187D01*
X554532Y411224D01*
X554454Y411265D01*
X554377Y411313D01*
X554291Y411361D01*
X554125Y411472D01*
X554040Y411531D01*
X553962Y411590D01*
X553888Y411653D01*
X553818Y411720D01*
X553814Y411723D01*
X553803Y411734D01*
X553785Y411757D01*
X553759Y411786D01*
X553729Y411827D01*
X553692Y411875D01*
X553655Y411931D01*
X553611Y411997D01*
X553563Y412075D01*
X553514Y412160D01*
X553463Y412256D01*
X553411Y412363D01*
X553359Y412478D01*
X553304Y412608D01*
X553252Y412745D01*
X553200Y412893D01*
X553307Y412900D01*
Y412896D01*
D02*
G37*
G36*
X553947Y408767D02*
X553962Y408763D01*
X553988Y408752D01*
X554025Y408738D01*
X554073Y408723D01*
X554125Y408704D01*
X554184Y408682D01*
X554254Y408656D01*
X554325Y408630D01*
X554402Y408604D01*
X554488Y408575D01*
X554573Y408545D01*
X554750Y408482D01*
X554935Y408419D01*
X554943Y408416D01*
X554957Y408412D01*
X554983Y408401D01*
X555020Y408390D01*
X555065Y408375D01*
X555113Y408356D01*
X555172Y408338D01*
X555239Y408316D01*
X555305Y408293D01*
X555379Y408268D01*
X555538Y408219D01*
X555705Y408164D01*
X555875Y408112D01*
X555749Y407890D01*
Y407128D01*
X555753D01*
X555764Y407121D01*
X555786Y407117D01*
X555812Y407106D01*
X555845Y407095D01*
X555883Y407084D01*
X555927Y407069D01*
X555979Y407050D01*
X556031Y407032D01*
X556086Y407013D01*
X556212Y406976D01*
X556345Y406932D01*
X556482Y406891D01*
X556297Y406566D01*
X556179Y406714D01*
X555749Y406862D01*
Y406081D01*
X555890Y405877D01*
X555657Y405729D01*
X555546Y405889D01*
X555542D01*
X555535Y405892D01*
X555520Y405896D01*
X555498Y405903D01*
X555472Y405914D01*
X555442Y405922D01*
X555409Y405933D01*
X555372Y405948D01*
X555283Y405977D01*
X555187Y406011D01*
X555080Y406048D01*
X554965Y406085D01*
X554732Y406162D01*
X554617Y406199D01*
X554506Y406236D01*
X554406Y406270D01*
X554314Y406299D01*
X554273Y406314D01*
X554236Y406325D01*
X554203Y406336D01*
X554173Y406344D01*
X554062Y406658D01*
X554229Y406603D01*
Y407380D01*
X553648Y407576D01*
X553644D01*
X553629Y407579D01*
X553611Y407583D01*
X553592Y407579D01*
X553570Y407572D01*
X553551Y407557D01*
X553537Y407531D01*
X553533Y407513D01*
Y406540D01*
X553537Y406529D01*
X553544Y406510D01*
X553551Y406492D01*
X553570Y406466D01*
X553592Y406444D01*
X553622Y406421D01*
X553659Y406399D01*
X553666Y406395D01*
X553674Y406392D01*
X553685Y406388D01*
X553699Y406381D01*
X553718Y406373D01*
X553740Y406366D01*
X553770Y406355D01*
X553803Y406340D01*
X553840Y406325D01*
X553885Y406307D01*
X553936Y406288D01*
X553992Y406266D01*
X554055Y406244D01*
X554121Y406218D01*
X554199Y406188D01*
Y406044D01*
X554195D01*
X554184Y406048D01*
X554166Y406055D01*
X554140Y406062D01*
X554110Y406074D01*
X554077Y406085D01*
X554003Y406107D01*
X553922Y406129D01*
X553844Y406147D01*
X553807Y406155D01*
X553777Y406159D01*
X553748Y406162D01*
X553725D01*
X553722D01*
X553707Y406159D01*
X553688Y406155D01*
X553666Y406147D01*
X553637Y406136D01*
X553607Y406122D01*
X553577Y406103D01*
X553548Y406077D01*
X553540Y406081D01*
X553526Y406096D01*
X553500Y406118D01*
X553470Y406147D01*
X553437Y406181D01*
X553404Y406218D01*
X553374Y406258D01*
X553352Y406299D01*
X553348Y406303D01*
X553344Y406318D01*
X553333Y406340D01*
X553326Y406373D01*
X553315Y406414D01*
X553304Y406458D01*
X553300Y406510D01*
X553296Y406569D01*
Y407653D01*
X553300Y407668D01*
Y407687D01*
X553311Y407735D01*
X553337Y407787D01*
X553352Y407812D01*
X553374Y407835D01*
X553396Y407853D01*
X553426Y407868D01*
X553463Y407875D01*
X553503D01*
X553551Y407872D01*
X553607Y407857D01*
X554229Y407646D01*
Y408393D01*
X554047Y408453D01*
X553940Y408771D01*
X553947Y408767D01*
D02*
G37*
G36*
X553418Y405596D02*
X553422D01*
X553429Y405592D01*
X553441Y405581D01*
X553455Y405570D01*
X553474Y405552D01*
X553496Y405526D01*
X553522Y405489D01*
X553548Y405444D01*
X553551Y405441D01*
X553563Y405422D01*
X553577Y405400D01*
X553600Y405374D01*
X553622Y405341D01*
X553648Y405304D01*
X553707Y405237D01*
X553711Y405234D01*
X553725Y405219D01*
X553748Y405197D01*
X553781Y405167D01*
X553825Y405126D01*
X553888Y405075D01*
X553922Y405045D01*
X553962Y405012D01*
X554003Y404978D01*
X554051Y404941D01*
Y404886D01*
Y404827D01*
X554044Y404830D01*
X554025Y404838D01*
X553996Y404852D01*
X553959Y404875D01*
X553914Y404897D01*
X553862Y404923D01*
X553807Y404952D01*
X553748Y404986D01*
X553629Y405052D01*
X553574Y405089D01*
X553518Y405123D01*
X553470Y405156D01*
X553429Y405189D01*
X553396Y405219D01*
X553370Y405245D01*
X553367Y405252D01*
X553355Y405267D01*
X553337Y405289D01*
X553322Y405319D01*
X553304Y405356D01*
X553285Y405389D01*
X553274Y405426D01*
X553270Y405459D01*
Y405467D01*
X553274Y405478D01*
X553278Y405493D01*
X553289Y405526D01*
X553300Y405544D01*
X553315Y405567D01*
X553318Y405570D01*
X553322Y405574D01*
X553344Y405589D01*
X553359Y405596D01*
X553374Y405600D01*
X553396D01*
X553418Y405596D01*
D02*
G37*
G36*
X554029Y404427D02*
X554025Y404423D01*
X554018Y404416D01*
X554007Y404405D01*
X553992Y404386D01*
X553947Y404349D01*
X553899Y404301D01*
X553844Y404257D01*
X553788Y404216D01*
X553759Y404201D01*
X553736Y404186D01*
X553714Y404179D01*
X553692Y404175D01*
X553688D01*
X553677D01*
X553659D01*
X553640D01*
X553592Y404179D01*
X553570Y404183D01*
X553551Y404186D01*
X553548D01*
X553533Y404194D01*
X553514Y404205D01*
X553489Y404220D01*
X553463Y404238D01*
X553433Y404260D01*
X553404Y404290D01*
X553374Y404323D01*
X553370Y404327D01*
X553363Y404338D01*
X553352Y404357D01*
X553337Y404375D01*
X553311Y404416D01*
X553304Y404434D01*
X553300Y404449D01*
Y404453D01*
X553304Y404464D01*
X553307Y404475D01*
X553322Y404490D01*
X553341Y404501D01*
X553370Y404508D01*
X553411D01*
X553437Y404505D01*
X553466Y404497D01*
X553470D01*
X553474D01*
X553485Y404494D01*
X553503Y404490D01*
X553522D01*
X553544Y404486D01*
X553600Y404483D01*
X553670D01*
X553755Y404486D01*
X553848Y404494D01*
X553951Y404508D01*
X554029Y404427D01*
D02*
G37*
G36*
X554044Y403698D02*
X554040Y403694D01*
X554036Y403687D01*
X554025Y403676D01*
X554010Y403661D01*
X553973Y403624D01*
X553925Y403580D01*
X553873Y403535D01*
X553818Y403495D01*
X553766Y403461D01*
X553740Y403450D01*
X553718Y403443D01*
X553714D01*
X553699Y403439D01*
X553677Y403435D01*
X553651Y403432D01*
X553600Y403428D01*
X553574Y403432D01*
X553551Y403435D01*
X553548D01*
X553537Y403439D01*
X553522Y403450D01*
X553503Y403461D01*
X553481Y403476D01*
X553452Y403498D01*
X553426Y403528D01*
X553396Y403561D01*
X553392Y403565D01*
X553385Y403576D01*
X553370Y403594D01*
X553355Y403613D01*
X553341Y403635D01*
X553326Y403657D01*
X553318Y403676D01*
X553315Y403691D01*
Y403694D01*
X553318Y403702D01*
X553326Y403717D01*
X553337Y403728D01*
X553359Y403743D01*
X553392Y403750D01*
X553411Y403754D01*
X553437D01*
X553463Y403750D01*
X553496Y403746D01*
X553500D01*
X553507D01*
X553518Y403743D01*
X553537D01*
X553559Y403739D01*
X553581D01*
X553640Y403735D01*
X553711D01*
X553792Y403743D01*
X553877Y403757D01*
X553962Y403780D01*
X554044Y403698D01*
D02*
G37*
G36*
X554066Y404878D02*
X554084Y404875D01*
X554107Y404864D01*
X554136Y404852D01*
X554173Y404841D01*
X554210Y404827D01*
X554254Y404812D01*
X554303Y404793D01*
X554354Y404775D01*
X554462Y404734D01*
X554580Y404693D01*
X554702Y404653D01*
X554706D01*
X554717Y404649D01*
X554736Y404642D01*
X554758Y404634D01*
X554791Y404623D01*
X554824Y404612D01*
X554869Y404597D01*
X554913Y404582D01*
X554961Y404564D01*
X555017Y404545D01*
X555135Y404508D01*
X555265Y404468D01*
X555398Y404427D01*
X555287Y404201D01*
Y403657D01*
X555291D01*
X555298Y403654D01*
X555309Y403650D01*
X555324Y403643D01*
X555346Y403639D01*
X555372Y403628D01*
X555431Y403609D01*
X555501Y403583D01*
X555583Y403557D01*
X555672Y403528D01*
X555768Y403495D01*
X555964Y403428D01*
X556064Y403398D01*
X556164Y403365D01*
X556256Y403336D01*
X556341Y403310D01*
X556415Y403284D01*
X556482Y403265D01*
X556330Y402928D01*
X556193Y403084D01*
X555916Y403176D01*
Y402340D01*
X556097Y402085D01*
X555764Y401915D01*
Y403228D01*
X555287Y403391D01*
Y402747D01*
X555427Y402547D01*
X555180Y402388D01*
X555068Y402547D01*
X555061Y402551D01*
X555043Y402555D01*
X555009Y402566D01*
X554965Y402581D01*
X554913Y402599D01*
X554854Y402618D01*
X554791Y402640D01*
X554721Y402662D01*
X554576Y402710D01*
X554428Y402758D01*
X554358Y402780D01*
X554295Y402803D01*
X554236Y402821D01*
X554184Y402836D01*
X554092Y403147D01*
X554299Y403077D01*
Y404508D01*
X554143Y404560D01*
X554051Y404886D01*
X554055D01*
X554066Y404878D01*
D02*
G37*
G36*
X554084Y402943D02*
X554081Y402940D01*
X554077Y402932D01*
X554066Y402921D01*
X554051Y402906D01*
X554010Y402866D01*
X553962Y402814D01*
X553907Y402766D01*
X553848Y402714D01*
X553788Y402673D01*
X553762Y402658D01*
X553733Y402644D01*
X553725Y402640D01*
X553711Y402636D01*
X553685Y402625D01*
X553651Y402618D01*
X553614Y402610D01*
X553581Y402607D01*
X553544D01*
X553514Y402614D01*
X553511D01*
X553500Y402618D01*
X553485Y402629D01*
X553463Y402640D01*
X553441Y402655D01*
X553411Y402673D01*
X553381Y402699D01*
X553352Y402732D01*
X553348Y402736D01*
X553341Y402747D01*
X553326Y402762D01*
X553311Y402780D01*
X553296Y402803D01*
X553281Y402821D01*
X553274Y402840D01*
X553270Y402854D01*
Y402858D01*
X553274Y402866D01*
X553281Y402880D01*
X553296Y402895D01*
X553318Y402906D01*
X553352Y402917D01*
X553374Y402921D01*
X553404Y402925D01*
X553433D01*
X553466Y402921D01*
X553470D01*
X553477D01*
X553489D01*
X553507D01*
X553529D01*
X553551Y402925D01*
X553585D01*
X553618Y402928D01*
X553696Y402940D01*
X553788Y402962D01*
X553888Y402988D01*
X554003Y403025D01*
X554084Y402943D01*
D02*
G37*
G36*
X506376Y397482D02*
X507386D01*
Y396793D01*
X506376D01*
Y395800D01*
X505705D01*
Y396793D01*
X504700D01*
Y397482D01*
X505705D01*
Y398475D01*
X506376D01*
Y397482D01*
D02*
G37*
G36*
X577460Y397100D02*
X576000D01*
X576144Y397827D01*
X577604D01*
X577460Y397100D01*
D02*
G37*
%LPC*%
G36*
X554380Y408342D02*
Y407594D01*
X554928Y407406D01*
Y408157D01*
X554380Y408342D01*
D02*
G37*
G36*
X555080Y408105D02*
Y407354D01*
X555598Y407180D01*
Y407927D01*
X555080Y408105D01*
D02*
G37*
G36*
X554380Y407328D02*
Y406551D01*
X554928Y406366D01*
Y407143D01*
X554380Y407328D01*
D02*
G37*
G36*
X555080Y407087D02*
Y406314D01*
X555598Y406136D01*
Y406913D01*
X555080Y407087D01*
D02*
G37*
G36*
X554451Y404457D02*
Y403025D01*
X555135Y402792D01*
Y404223D01*
X554451Y404457D01*
D02*
G37*
%LPD*%
D17*
X372000Y305300D02*
D03*
X378900D02*
D03*
D18*
X351000Y308300D02*
D03*
Y301400D02*
D03*
D19*
X392238Y309040D02*
D03*
Y301560D02*
D03*
X401963Y305300D02*
D03*
D20*
X362100Y300200D02*
D03*
X413100Y301100D02*
D03*
D21*
X362100Y310200D02*
D03*
X413100Y311100D02*
D03*
D22*
X360121Y286084D02*
D03*
Y325454D02*
D03*
D23*
X340436Y286084D02*
D03*
Y325454D02*
D03*
X379806D02*
D03*
Y286084D02*
D03*
D24*
X384800Y309400D02*
D03*
X380478Y306878D02*
D03*
M02*
