G04*
G04 #@! TF.GenerationSoftware,Altium Limited,Altium Designer,21.7.2 (23)*
G04*
G04 Layer_Physical_Order=2*
G04 Layer_Color=16711680*
%FSLAX25Y25*%
%MOIN*%
G70*
G04*
G04 #@! TF.SameCoordinates,E983133F-EF14-454E-B69A-C38BEC15BBAD*
G04*
G04*
G04 #@! TF.FilePolarity,Positive*
G04*
G01*
G75*
%ADD16R,0.04921X0.02756*%
%ADD26C,0.00500*%
%ADD27C,0.05906*%
%ADD28R,0.05906X0.05906*%
%ADD29C,0.01968*%
%ADD30C,0.10630*%
G36*
X579187Y358000D02*
X577740D01*
Y358740D01*
X570260D01*
Y358000D01*
X536494D01*
Y362835D01*
X538685D01*
Y367165D01*
X532189D01*
Y362835D01*
X534379D01*
Y358000D01*
X510784D01*
X509944Y358485D01*
X508992Y358740D01*
X508008D01*
X507056Y358485D01*
X506216Y358000D01*
X503072D01*
Y398928D01*
X579187D01*
Y358000D01*
D02*
G37*
G36*
X535692D02*
X535753Y357693D01*
X535927Y357432D01*
X536187Y357258D01*
X536494Y357197D01*
X570260D01*
X570567Y357258D01*
X570827Y357432D01*
X571002Y357693D01*
X571050Y357937D01*
X576950D01*
X576998Y357693D01*
X577173Y357432D01*
X577433Y357258D01*
X577740Y357197D01*
X579187D01*
Y322813D01*
X503072D01*
Y357197D01*
X506216D01*
X506268Y357207D01*
X506321Y357204D01*
X506420Y357238D01*
X506523Y357258D01*
X506567Y357288D01*
X506617Y357305D01*
X507366Y357737D01*
X508113Y357937D01*
X508887D01*
X509634Y357737D01*
X510383Y357305D01*
X510433Y357288D01*
X510477Y357258D01*
X510580Y357238D01*
X510679Y357204D01*
X510732Y357207D01*
X510784Y357197D01*
X534379D01*
X534686Y357258D01*
X534947Y357432D01*
X535121Y357693D01*
X535182Y358000D01*
Y359500D01*
X535692D01*
Y358000D01*
D02*
G37*
%LPC*%
G36*
X551101Y386602D02*
X549899D01*
X548720Y386368D01*
X547610Y385908D01*
X546610Y385240D01*
X545760Y384390D01*
X545092Y383390D01*
X544632Y382280D01*
X544398Y381101D01*
Y379899D01*
X544632Y378720D01*
X545092Y377609D01*
X545760Y376610D01*
X546610Y375760D01*
X547610Y375092D01*
X548720Y374632D01*
X549899Y374398D01*
X551101D01*
X552280Y374632D01*
X553391Y375092D01*
X554390Y375760D01*
X555240Y376610D01*
X555908Y377609D01*
X556368Y378720D01*
X556602Y379899D01*
Y381101D01*
X556368Y382280D01*
X555908Y383390D01*
X555240Y384390D01*
X554390Y385240D01*
X553391Y385908D01*
X552280Y386368D01*
X551101Y386602D01*
D02*
G37*
G36*
X539852Y374272D02*
X539148D01*
X538496Y374002D01*
X538052Y373558D01*
X532406D01*
X532001Y373477D01*
X531658Y373248D01*
X529315Y370905D01*
X524315D01*
Y366575D01*
X530811D01*
Y369410D01*
X532844Y371442D01*
X538052D01*
X538496Y370998D01*
X539148Y370728D01*
X539852D01*
X540504Y370998D01*
X541002Y371496D01*
X541272Y372148D01*
Y372852D01*
X541002Y373504D01*
X540504Y374002D01*
X539852Y374272D01*
D02*
G37*
G36*
X574492Y368740D02*
X573508D01*
X572556Y368485D01*
X571703Y367993D01*
X571007Y367297D01*
X570515Y366444D01*
X570260Y365492D01*
Y364508D01*
X570515Y363556D01*
X571007Y362703D01*
X571703Y362007D01*
X572556Y361515D01*
X573508Y361260D01*
X574492D01*
X575444Y361515D01*
X576297Y362007D01*
X576993Y362703D01*
X577485Y363556D01*
X577740Y364508D01*
Y365492D01*
X577485Y366444D01*
X576993Y367297D01*
X576297Y367993D01*
X575444Y368485D01*
X574492Y368740D01*
D02*
G37*
G36*
X551101Y347102D02*
X549899D01*
X548720Y346868D01*
X547610Y346408D01*
X546610Y345740D01*
X545760Y344890D01*
X545092Y343891D01*
X544632Y342780D01*
X544398Y341601D01*
Y340399D01*
X544632Y339220D01*
X545092Y338109D01*
X545760Y337110D01*
X546610Y336260D01*
X547610Y335592D01*
X548720Y335132D01*
X549899Y334898D01*
X551101D01*
X552280Y335132D01*
X553391Y335592D01*
X554390Y336260D01*
X555240Y337110D01*
X555908Y338109D01*
X556368Y339220D01*
X556602Y340399D01*
Y341601D01*
X556368Y342780D01*
X555908Y343891D01*
X555240Y344890D01*
X554390Y345740D01*
X553391Y346408D01*
X552280Y346868D01*
X551101Y347102D01*
D02*
G37*
%LPD*%
D16*
X527563Y361260D02*
D03*
Y368740D02*
D03*
X535437Y365000D02*
D03*
D26*
X532406Y372500D02*
X539500D01*
X527563Y368740D02*
X528646D01*
X532406Y372500D01*
X539360Y372360D02*
X539500Y372500D01*
X535437Y354563D02*
Y365000D01*
Y354563D02*
X535500Y354500D01*
D27*
X574000Y365000D02*
D03*
X508500Y355000D02*
D03*
D28*
X574000D02*
D03*
X508500Y365000D02*
D03*
D29*
X539500Y372500D02*
D03*
D30*
X511000Y380500D02*
D03*
Y341000D02*
D03*
X550500Y380500D02*
D03*
Y341000D02*
D03*
M02*
