G04*
G04 #@! TF.GenerationSoftware,Altium Limited,Altium Designer,21.7.2 (23)*
G04*
G04 Layer_Color=16711935*
%FSLAX25Y25*%
%MOIN*%
G70*
G04*
G04 #@! TF.SameCoordinates,169E9DDB-08D8-40C8-A860-A210CD79AB01*
G04*
G04*
G04 #@! TF.FilePolarity,Negative*
G04*
G01*
G75*
%ADD20C,0.06706*%
%ADD21R,0.06706X0.06706*%
%ADD22C,0.02769*%
%ADD23C,0.25210*%
%ADD31C,0.00394*%
%ADD32R,0.05721X0.03556*%
G36*
X355160Y286084D02*
Y285595D01*
X355351Y284637D01*
X355725Y283734D01*
X356268Y282922D01*
X356959Y282231D01*
X357771Y281688D01*
X358674Y281314D01*
X359632Y281123D01*
X360121D01*
X360610D01*
X361568Y281314D01*
X362471Y281688D01*
X363283Y282231D01*
X363974Y282922D01*
X364517Y283734D01*
X364891Y284637D01*
X365082Y285595D01*
Y286084D01*
Y286573D01*
X364891Y287531D01*
X364517Y288434D01*
X363974Y289246D01*
X363283Y289937D01*
X362471Y290480D01*
X361568Y290854D01*
X360610Y291045D01*
X360121D01*
X359632D01*
X358674Y290854D01*
X357771Y290480D01*
X356959Y289937D01*
X356268Y289246D01*
X355725Y288434D01*
X355351Y287531D01*
X355160Y286573D01*
Y286084D01*
D01*
D02*
G37*
G36*
Y325454D02*
Y324966D01*
X355351Y324007D01*
X355725Y323104D01*
X356268Y322292D01*
X356959Y321601D01*
X357771Y321058D01*
X358674Y320684D01*
X359632Y320494D01*
X360121D01*
X360610D01*
X361568Y320684D01*
X362471Y321058D01*
X363283Y321601D01*
X363974Y322292D01*
X364517Y323104D01*
X364891Y324007D01*
X365082Y324966D01*
Y325454D01*
Y325943D01*
X364891Y326901D01*
X364517Y327804D01*
X363974Y328616D01*
X363283Y329307D01*
X362471Y329850D01*
X361568Y330224D01*
X360610Y330415D01*
X360121D01*
X359632D01*
X358674Y330224D01*
X357771Y329850D01*
X356959Y329307D01*
X356268Y328616D01*
X355725Y327804D01*
X355351Y326901D01*
X355160Y325943D01*
Y325454D01*
D01*
D02*
G37*
D20*
X413100Y311100D02*
D03*
X361000Y311600D02*
D03*
D21*
X413100Y301100D02*
D03*
X361000Y301600D02*
D03*
D22*
X398700Y303300D02*
D03*
X381200Y304400D02*
D03*
D23*
X379805Y285915D02*
D03*
X340436Y286084D02*
D03*
Y325454D02*
D03*
X379806D02*
D03*
D31*
X365082D02*
G03*
X365082Y325454I-4961J0D01*
G01*
Y286084D02*
G03*
X365082Y286084I-4961J0D01*
G01*
D32*
X341237Y305700D02*
D03*
X333363Y309440D02*
D03*
Y301960D02*
D03*
M02*
