G04*
G04 #@! TF.GenerationSoftware,Altium Limited,Altium Designer,21.7.2 (23)*
G04*
G04 Layer_Color=8421504*
%FSLAX25Y25*%
%MOIN*%
G70*
G04*
G04 #@! TF.SameCoordinates,E983133F-EF14-454E-B69A-C38BEC15BBAD*
G04*
G04*
G04 #@! TF.FilePolarity,Positive*
G04*
G01*
G75*
%ADD14R,0.04213X0.02362*%
%ADD15R,0.03175X0.03402*%
%ADD16R,0.04921X0.02756*%
%ADD17R,0.03402X0.03175*%
G36*
X534295Y351728D02*
X537445D01*
X537642Y351925D01*
Y352823D01*
X536185D01*
Y354122D01*
X537642D01*
Y355075D01*
X537445Y355272D01*
X534295D01*
X534098Y355075D01*
Y351925D01*
X534295Y351728D01*
D02*
G37*
G36*
X540398Y351925D02*
Y352823D01*
X541894D01*
Y354122D01*
X540398D01*
Y355075D01*
X540594Y355272D01*
X543705D01*
X543901Y355075D01*
Y351925D01*
X543705Y351728D01*
X540594D01*
X540398Y351925D01*
D02*
G37*
G36*
X543425Y363637D02*
X544323D01*
Y362141D01*
X545622D01*
Y363637D01*
X546575D01*
X546772Y363440D01*
Y360330D01*
X546575Y360133D01*
X543425D01*
X543228Y360330D01*
Y363440D01*
X543425Y363637D01*
D02*
G37*
G36*
X543228Y369739D02*
Y366590D01*
X543425Y366393D01*
X544323D01*
Y367849D01*
X545622D01*
Y366393D01*
X546575D01*
X546772Y366590D01*
Y369739D01*
X546575Y369936D01*
X543425D01*
X543228Y369739D01*
D02*
G37*
D14*
X517638Y358740D02*
D03*
Y351260D02*
D03*
X527363Y355000D02*
D03*
X562862Y361260D02*
D03*
Y368740D02*
D03*
X553137Y365000D02*
D03*
D15*
X541965Y353500D02*
D03*
X536034D02*
D03*
D16*
X537437Y363760D02*
D03*
Y371240D02*
D03*
X529563Y367500D02*
D03*
D17*
X545000Y368000D02*
D03*
Y362069D02*
D03*
M02*
