G04*
G04 #@! TF.GenerationSoftware,Altium Limited,Altium Designer,21.7.2 (23)*
G04*
G04 Layer_Physical_Order=1*
G04 Layer_Color=255*
%FSLAX25Y25*%
%MOIN*%
G70*
G04*
G04 #@! TF.SameCoordinates,E983133F-EF14-454E-B69A-C38BEC15BBAD*
G04*
G04*
G04 #@! TF.FilePolarity,Positive*
G04*
G01*
G75*
%ADD14R,0.04213X0.02362*%
%ADD15R,0.03175X0.03402*%
%ADD16R,0.04921X0.02756*%
%ADD17R,0.03402X0.03175*%
%ADD26C,0.00500*%
%ADD27C,0.05906*%
%ADD28R,0.05906X0.05906*%
%ADD29C,0.01968*%
%ADD30C,0.10630*%
G36*
X579187Y360000D02*
X565756D01*
Y363228D01*
X559968D01*
Y360000D01*
X547488D01*
Y364444D01*
X542512D01*
Y360000D01*
X534058D01*
Y361500D01*
X533977Y361905D01*
X533748Y362248D01*
X531123Y364873D01*
X531315Y365335D01*
X532811D01*
Y369665D01*
X526315D01*
Y365335D01*
X528506D01*
Y364937D01*
X528586Y364532D01*
X528815Y364189D01*
X531942Y361062D01*
Y360000D01*
X520532D01*
Y360709D01*
X518696D01*
Y363700D01*
X525178Y370182D01*
X534189D01*
Y369075D01*
X540685D01*
Y371179D01*
X541002Y371496D01*
X541272Y372148D01*
Y372852D01*
X541002Y373504D01*
X540504Y374002D01*
X539852Y374272D01*
X539148D01*
X538496Y374002D01*
X537998Y373504D01*
X537957Y373406D01*
X534189D01*
Y372298D01*
X524740D01*
X524335Y372217D01*
X523992Y371988D01*
X516890Y364886D01*
X516661Y364543D01*
X516580Y364138D01*
Y360709D01*
X514745D01*
Y360000D01*
X503072D01*
Y398928D01*
X579187D01*
Y360000D01*
D02*
G37*
G36*
X546685D02*
X546746Y359693D01*
X546920Y359432D01*
X547181Y359258D01*
X547488Y359197D01*
X558217D01*
X558474Y358697D01*
X558374Y358558D01*
X539921D01*
X539516Y358477D01*
X539173Y358248D01*
X536913Y355988D01*
X533660D01*
Y352508D01*
X533469Y352318D01*
X520532D01*
Y353228D01*
X514745D01*
Y349291D01*
X520532D01*
Y350202D01*
X533907D01*
X534312Y350283D01*
X534655Y350512D01*
X535155Y351012D01*
X538409D01*
Y354492D01*
X540359Y356442D01*
X559102D01*
X559507Y356523D01*
X559850Y356752D01*
X562389Y359291D01*
X565399D01*
X565448Y359258D01*
X565756Y359197D01*
X579187D01*
Y322813D01*
X503072D01*
Y359197D01*
X514745D01*
Y356772D01*
X520532D01*
Y359197D01*
X526305D01*
Y356968D01*
X524469D01*
Y353031D01*
X530256D01*
Y356968D01*
X528420D01*
Y359197D01*
X531942D01*
X532249Y359258D01*
X532510Y359432D01*
X532684Y359693D01*
X532745Y360000D01*
Y361062D01*
X532745Y361062D01*
X532684Y361369D01*
X532510Y361630D01*
X532510Y361630D01*
X532684Y362163D01*
X532695Y362165D01*
X533124Y361736D01*
X533221Y361592D01*
X533255Y361421D01*
Y360000D01*
X533316Y359693D01*
X533490Y359432D01*
X533750Y359258D01*
X534058Y359197D01*
X542512D01*
X542819Y359258D01*
X543080Y359432D01*
X543254Y359693D01*
X543315Y360000D01*
Y362500D01*
X546685D01*
Y360000D01*
D02*
G37*
%LPC*%
G36*
X551101Y386602D02*
X549899D01*
X548720Y386368D01*
X547610Y385908D01*
X546610Y385240D01*
X545760Y384390D01*
X545092Y383390D01*
X544632Y382280D01*
X544398Y381101D01*
Y379899D01*
X544632Y378720D01*
X545092Y377609D01*
X545760Y376610D01*
X546610Y375760D01*
X547610Y375092D01*
X548720Y374632D01*
X549899Y374398D01*
X551101D01*
X552280Y374632D01*
X553391Y375092D01*
X554390Y375760D01*
X555240Y376610D01*
X555908Y377609D01*
X556368Y378720D01*
X556602Y379899D01*
Y381101D01*
X556368Y382280D01*
X555908Y383390D01*
X555240Y384390D01*
X554390Y385240D01*
X553391Y385908D01*
X552280Y386368D01*
X551101Y386602D01*
D02*
G37*
G36*
X565756Y370709D02*
X559968D01*
Y366772D01*
X565756D01*
Y367683D01*
X569822D01*
X570715Y366790D01*
X570515Y366444D01*
X570260Y365492D01*
Y364508D01*
X570515Y363556D01*
X571007Y362703D01*
X571703Y362007D01*
X572556Y361515D01*
X573508Y361260D01*
X574492D01*
X575444Y361515D01*
X576297Y362007D01*
X576993Y362703D01*
X577485Y363556D01*
X577740Y364508D01*
Y365492D01*
X577485Y366444D01*
X576993Y367297D01*
X576297Y367993D01*
X575444Y368485D01*
X574492Y368740D01*
X573508D01*
X572556Y368485D01*
X572210Y368285D01*
X571008Y369488D01*
X570665Y369717D01*
X570260Y369798D01*
X565756D01*
Y370709D01*
D02*
G37*
G36*
X551101Y347102D02*
X549899D01*
X548720Y346868D01*
X547610Y346408D01*
X546610Y345740D01*
X545760Y344890D01*
X545092Y343891D01*
X544632Y342780D01*
X544398Y341601D01*
Y340399D01*
X544632Y339220D01*
X545092Y338109D01*
X545760Y337110D01*
X546610Y336260D01*
X547610Y335592D01*
X548720Y335132D01*
X549899Y334898D01*
X551101D01*
X552280Y335132D01*
X553391Y335592D01*
X554390Y336260D01*
X555240Y337110D01*
X555908Y338109D01*
X556368Y339220D01*
X556602Y340399D01*
Y341601D01*
X556368Y342780D01*
X555908Y343891D01*
X555240Y344890D01*
X554390Y345740D01*
X553391Y346408D01*
X552280Y346868D01*
X551101Y347102D01*
D02*
G37*
%LPD*%
D14*
X517638Y358740D02*
D03*
Y351260D02*
D03*
X527363Y355000D02*
D03*
X562862Y361260D02*
D03*
Y368740D02*
D03*
X553137Y365000D02*
D03*
D15*
X541965Y353500D02*
D03*
X536034D02*
D03*
D16*
X537437Y363760D02*
D03*
Y371240D02*
D03*
X529563Y367500D02*
D03*
D17*
X545000Y368000D02*
D03*
Y362069D02*
D03*
D26*
X517638Y358740D02*
Y364138D01*
X524740Y371240D02*
X537437D01*
X517638Y364138D02*
X524740Y371240D01*
X533000Y358000D02*
Y361500D01*
X529563Y364937D02*
Y367500D01*
Y364937D02*
X533000Y361500D01*
X539921Y357500D02*
X559102D01*
X536034Y353613D02*
X539921Y357500D01*
X536034Y353387D02*
Y353613D01*
X559102Y357500D02*
X562862Y361260D01*
X517638Y351260D02*
X533907D01*
X536034Y353387D01*
X527363Y355000D02*
Y361863D01*
X570260Y368740D02*
X574000Y365000D01*
X562862Y368740D02*
X570260D01*
D27*
X574000Y365000D02*
D03*
X508500Y355000D02*
D03*
D28*
X574000D02*
D03*
X508500Y365000D02*
D03*
D29*
X539500Y372500D02*
D03*
D30*
X511000Y380500D02*
D03*
Y341000D02*
D03*
X550500Y380500D02*
D03*
Y341000D02*
D03*
M02*
