G04*
G04 #@! TF.GenerationSoftware,Altium Limited,Altium Designer,21.7.2 (23)*
G04*
G04 Layer_Color=65535*
%FSLAX25Y25*%
%MOIN*%
G70*
G04*
G04 #@! TF.SameCoordinates,E983133F-EF14-454E-B69A-C38BEC15BBAD*
G04*
G04*
G04 #@! TF.FilePolarity,Positive*
G04*
G01*
G75*
%ADD10C,0.00984*%
%ADD11C,0.00787*%
%ADD12C,0.00600*%
%ADD13C,0.01000*%
D10*
X566421Y355000D02*
G03*
X566421Y355000I-492J0D01*
G01*
X517063Y365000D02*
G03*
X517063Y365000I-492J0D01*
G01*
D11*
X568488Y349488D02*
X579512D01*
X568488Y370512D02*
X579512D01*
X568488Y349488D02*
Y370512D01*
X579512Y349488D02*
Y370512D01*
X502988Y349488D02*
Y370512D01*
X514012Y349488D02*
Y370512D01*
X502988Y349488D02*
X514012D01*
X502988Y370512D02*
X514012D01*
D12*
X519051Y348952D02*
X525950D01*
Y353053D01*
X519051Y361048D02*
X525950D01*
Y356947D02*
Y361048D01*
X519051Y353207D02*
Y356793D01*
X540678Y350899D02*
X544453D01*
Y356101D01*
X540678D02*
X544453D01*
X533547Y350899D02*
X537322D01*
X533547D02*
Y356101D01*
X537322D01*
X554550Y371048D02*
X561449D01*
X554550Y366947D02*
Y371048D01*
Y358952D02*
X561449D01*
X554550D02*
Y363053D01*
X561449Y363207D02*
Y366793D01*
X530641Y373509D02*
X536359D01*
X530641Y369447D02*
Y373509D01*
Y361491D02*
X536359D01*
X530641D02*
Y365553D01*
X536359Y365707D02*
Y369293D01*
X547601Y366712D02*
Y370488D01*
X542399D02*
X547601D01*
X542399Y366712D02*
Y370488D01*
X547601Y359581D02*
Y363356D01*
X542399Y359581D02*
X547601D01*
X542399D02*
Y363356D01*
D13*
X506500Y330500D02*
Y334499D01*
X507001Y387000D02*
Y390999D01*
X505001Y388999D02*
X509000D01*
X570002Y345499D02*
Y343500D01*
X571002Y342500D01*
X575000D01*
X576000Y343500D01*
Y345499D01*
X575000Y346499D01*
X571002D01*
X570002Y345499D01*
X573001Y348498D02*
Y352497D01*
X570002Y376499D02*
Y374500D01*
X571002Y373500D01*
X575000D01*
X576000Y374500D01*
Y376499D01*
X575000Y377499D01*
X571002D01*
X570002Y376499D01*
X573001Y379498D02*
Y383497D01*
X571002Y381497D02*
X575000D01*
M02*
